<svg id="Camada_1" data-name="Camada 1" xmlns="http://www.w3.org/2000/svg" viewBox="0 0 24 24">
    <defs>
        <style>.cls-1{fill:#f44330;}.cls-2{fill:#212121;}</style>
    </defs>
    <title>favicon-portifolio</title>
    <rect class="cls-1" width="24" height="24"/>
    <g id="Drawing">
        <path class="cls-2"
              d="M3,6.51a36.19,36.19,0,0,0,8.27,2,5.84,5.84,0,0,0,3.86-.66c1-.72,1.14-2.18.89-3.51a10.68,10.68,0,0,0-.55-2,5.64,5.64,0,0,0-.43-.93l-.12-.2c0-.05-.13-.14-.06-.1a.21.21,0,0,0,.23,0c.06-.06.05-.06.06-.08a.15.15,0,0,0,0,.06,1.69,1.69,0,0,0,0,.23c.08,1.39.35,2.83.56,4.24.43,2.85.93,5.68,1.11,8.57a17.92,17.92,0,0,1-.18,4.38,7,7,0,0,1-.75,2.16,3.5,3.5,0,0,1-1.82,1.58,4.93,4.93,0,0,1-2.37.18,6,6,0,0,1-1.14-.29,2,2,0,0,1-.64-.35.41.41,0,0,1-.13-.15.56.56,0,0,1-.09-.43.62.62,0,0,1,.12-.26.73.73,0,0,1,.09-.09.64.64,0,0,1,.16-.1,2,2,0,0,1,.36-.13c1.52-.33,2.91-.38,4.34-.57a18.58,18.58,0,0,0,2.06-.29l.39-.12s0,0,0,0a.4.4,0,0,0-.08.34c.12.3.14.18.09.19a5.35,5.35,0,0,0-.93-.25c-.69-.13-1.41-.25-2.12-.42a7.79,7.79,0,0,1-1.09-.31,2.09,2.09,0,0,1-1.1-.74.93.93,0,0,1,0-.87,1.54,1.54,0,0,1,.42-.53,5.24,5.24,0,0,1,1-.65,19.7,19.7,0,0,1,2-.91c1.35-.53,2.73-.94,4.11-1.34l0,.09c-1.33.53-2.65,1.11-3.94,1.72a17.44,17.44,0,0,0-1.86,1,5,5,0,0,0-.78.62.94.94,0,0,0-.23.31.12.12,0,0,0,0,.1s0,0,0,0a1.54,1.54,0,0,0,.7.37,7.69,7.69,0,0,0,1,.24c.68.13,1.39.21,2.11.33a4.79,4.79,0,0,1,1.16.27,1.08,1.08,0,0,1,.21.11.76.76,0,0,1,.14.13.56.56,0,0,1,.14.27.63.63,0,0,1-.17.58.83.83,0,0,1-.24.17,2.51,2.51,0,0,1-.63.22,19.41,19.41,0,0,1-2.18.36c-1.42.18-2.91.27-4.2.52l-.15,0s0,0,0,0l0,0a.4.4,0,0,0,.09-.21.37.37,0,0,0-.05-.3c-.06-.08,0,0,0-.06a1.43,1.43,0,0,0,.31.15,4,4,0,0,0,.93.26,4,4,0,0,0,1.89-.09c1.17-.37,1.81-1.69,2.11-3a18.74,18.74,0,0,0,.41-4.19,47.23,47.23,0,0,0-.9-8.53c-.23-1.42-.57-2.79-.78-4.26,0-.1,0-.19,0-.31a1,1,0,0,1,0-.2.42.42,0,0,1,.12-.19.33.33,0,0,1,.36-.06.81.81,0,0,1,.33.27l.18.24a8.72,8.72,0,0,1,.54,1,9.79,9.79,0,0,1,.71,2.12,6.32,6.32,0,0,1,.07,2.3,3.15,3.15,0,0,1-1.25,2.07,6.59,6.59,0,0,1-4.45.72A27.4,27.4,0,0,1,3,6.61Z"/>
    </g>
</svg>
