<svg id="Camada_1" data-name="Camada 1" xmlns="http://www.w3.org/2000/svg" viewBox="0 0 512 512">
    <defs>
        <style>.cls-1{fill:#000;opacity:.9}.cls-2{fill:#ededff;}</style>
    </defs>
    <title>android-icon</title>
    <rect class="cls-1" x="9" y="165.52" width="59.7" height="191.68" rx="29.85"/>
    <rect class="cls-1" x="411.22" y="46.12" width="59.7" height="191.68" rx="29.85"
          transform="translate(697.71 527.74) rotate(-141.47)"/>
    <path class="cls-1"
          d="M84.42,162.38a124.51,124.51,0,0,1,69.13-110l-22-37.71c-2.81-3.29-2.21-7.74,0-9.42s7.22-1,9.43,3.14l22,37.71a147.72,147.72,0,0,1,119.41,0q11-18.85,22-37.71c2.21-4.12,7.07-4.94,9.43-3.14,2.21,1.68,2.81,6.13,0,9.42q-11,18.86-22,37.71A118.7,118.7,0,0,1,335.8,87c24.09,30.78,25.24,64.36,25.14,75.41Z"/>
    <path class="cls-1"
          d="M84.42,175V382.34A34.36,34.36,0,0,0,97,401.2a33.65,33.65,0,0,0,15.71,6.28H141v70.71a29.85,29.85,0,1,0,59.7,0V407.48h44v70.71a29.86,29.86,0,0,0,59.71,0V407.48H335.8a34.36,34.36,0,0,0,18.86-12.57,33.65,33.65,0,0,0,6.28-15.71V175Z"/>
    <circle class="cls-2" cx="288.67" cy="99.53" r="12.57"/>
    <circle class="cls-2" cx="156.69" cy="99.53" r="12.57"/>
</svg>
