<svg id="Camada_1" data-name="Camada 1" xmlns="http://www.w3.org/2000/svg" viewBox="0 0 512 512">
    <defs>
        <style>.cls-1,.cls-2{opacity:0.9;}</style>
    </defs>
    <title>https-icon</title>
    <g class="cls-1">
        <rect class="cls-2" x="334.91" y="323.63" width="13.75" height="13.75" rx="3.11"/>
        <path class="cls-2"
              d="M403,216.76h-29.9c.08-.91.11-1.83.11-2.75V147.46a53.27,53.27,0,0,0-3.47-19.4c-18.25-46.77-63.94-77.95-114.29-77-48.83.88-92.34,31.76-110,77.14A53.21,53.21,0,0,0,142,147.43v69.33H107.89A26.91,26.91,0,0,0,81,243.67V434.09A26.91,26.91,0,0,0,107.89,461H403a26.91,26.91,0,0,0,26.91-26.91V243.67A26.91,26.91,0,0,0,403,216.76ZM155.83,330.88v37.74a3.12,3.12,0,0,1-3.11,3.12h-14a3.12,3.12,0,0,1-3.11-3.12V354.23a3.11,3.11,0,0,0-3.11-3.11h-14.4a3.11,3.11,0,0,0-3.11,3.11v14.29a3.11,3.11,0,0,1-3.2,3.11c-5.65-.18-16.85-.46-17.42.11-.76.76-.38-34-.38-34V313.37a3.11,3.11,0,0,1,3.11-3.11h14.4a3.11,3.11,0,0,1,3.11,3.11v14.4a3.11,3.11,0,0,0,3.11,3.11h14.4a3.11,3.11,0,0,0,3.11-3.11v-14.4a3.11,3.11,0,0,1,3.11-3.11h14.4a3.11,3.11,0,0,1,3.11,3.11Zm75.22-3.49a3.11,3.11,0,0,1-3.11,3.11h-14.4a3.11,3.11,0,0,0-3.11,3.11v35a3.12,3.12,0,0,1-3.11,3.12h-14.4a3.12,3.12,0,0,1-3.11-3.12v-35a3.11,3.11,0,0,0-3.11-3.11H173.07a3.12,3.12,0,0,1-3.12-3.11V313a3.12,3.12,0,0,1,3.12-3.11h54.87a3.11,3.11,0,0,1,3.11,3.11Zm76.36.76a3.11,3.11,0,0,1-3.11,3.11H289.91a3.11,3.11,0,0,0-3.11,3.11v35a3.12,3.12,0,0,1-3.12,3.11H269.29a3.11,3.11,0,0,1-3.11-3.11v-35a3.12,3.12,0,0,0-3.11-3.11H249.43a3.11,3.11,0,0,1-3.11-3.11v-14.4a3.11,3.11,0,0,1,3.11-3.11H304.3a3.11,3.11,0,0,1,3.11,3.11ZM198.74,216.76V158.82c0-20.4,10.89-39.61,29-48.95a59.15,59.15,0,0,1,23.33-6.51,62.25,62.25,0,0,1,28.24,4.71c20.23,8.43,32.82,28.9,32.82,50.82V214c0,.92,0,1.84.1,2.75ZM362.4,348a3.11,3.11,0,0,1-3.11,3.11h-14.4a3.11,3.11,0,0,0-3.11,3.11v14.39a3.12,3.12,0,0,1-3.11,3.12h-14.4a3.12,3.12,0,0,1-3.11-3.12V313a3.11,3.11,0,0,1,3.11-3.11h35A3.11,3.11,0,0,1,362.4,313ZM417,319.22a3.11,3.11,0,0,1-3.11,3.11H395.6a3.11,3.11,0,0,0-3.11,3.11v6.22a3.12,3.12,0,0,0,3.11,3.12h18.29a3.11,3.11,0,0,1,3.11,3.11V369a3.11,3.11,0,0,1-3.11,3.11H379.26a3.12,3.12,0,0,1-3.12-3.11v-6.23a3.12,3.12,0,0,1,3.12-3.11h18.29a3.11,3.11,0,0,0,3.11-3.11v-6.23a3.12,3.12,0,0,0-3.11-3.11H379.26a3.12,3.12,0,0,1-3.12-3.11V313a3.12,3.12,0,0,1,3.12-3.11h34.63A3.11,3.11,0,0,1,417,313Z"/>
    </g>
</svg>
