<?xml version="1.0" encoding="UTF-8" standalone="no"?>
<!-- Created with Inkscape (http://www.inkscape.org/) -->

<svg
        xmlns:dc="http://purl.org/dc/elements/1.1/"
        xmlns:cc="http://creativecommons.org/ns#"
        xmlns:rdf="http://www.w3.org/1999/02/22-rdf-syntax-ns#"
        xmlns:svg="http://www.w3.org/2000/svg"
        xmlns="http://www.w3.org/2000/svg"
        xmlns:sodipodi="http://sodipodi.sourceforge.net/DTD/sodipodi-0.dtd"
        xmlns:inkscape="http://www.inkscape.org/namespaces/inkscape"
        version="1.1"
        id="svg4511"
        width="1882.3529"
        height="1882.3529"
        viewBox="0 0 1882.3529 1882.3529"
        sodipodi:docname="black.png.2018_06_16_19_40_34.0.svg"
        inkscape:version="0.92.1 r15371">
    <metadata
            id="metadata4517">
        <rdf:RDF>
            <cc:Work
                    rdf:about="">
                <dc:format>image/svg+xml</dc:format>
                <dc:type
                        rdf:resource="http://purl.org/dc/dcmitype/StillImage"/>
            </cc:Work>
        </rdf:RDF>
    </metadata>
    <defs
            id="defs4515"/>
    <sodipodi:namedview
            pagecolor="#ffffff"
            bordercolor="#666666"
            borderopacity="1"
            objecttolerance="10"
            gridtolerance="10"
            guidetolerance="10"
            inkscape:pageopacity="0"
            inkscape:pageshadow="2"
            inkscape:window-width="1920"
            inkscape:window-height="1017"
            id="namedview4513"
            showgrid="false"
            inkscape:zoom="0.45050001"
            inkscape:cx="941.17645"
            inkscape:cy="941.17645"
            inkscape:window-x="-8"
            inkscape:window-y="-8"
            inkscape:window-maximized="1"
            inkscape:current-layer="layer2"/>
    <g
            inkscape:groupmode="layer"
            id="layer2"
            inkscape:label="Desenho"
            style="display:inline">
        <path
                style="opacity:0.32400004;fill:#ff0000;fill-opacity:1;stroke:none;stroke-width:1.99401796;stroke-opacity:1"
                d="m 948.01577,1336.974 c -39.27794,-27.9101 -52.23575,-37.4466 -84.18983,-61.9605 C 808.47703,1232.5519 735.50409,1162.2584 689.46264,1107.0524 630.37577,1036.2044 584.2546,963.11374 543.05953,875.03976 530.60895,848.42074 502.92578,771.19661 499.81341,754.40168 c -0.71134,-3.83849 -3.47252,-15.95215 -6.13597,-26.91925 -4.70331,-19.36648 -12.69454,-60.3922 -16.89569,-86.73978 -3.4116,-21.39595 -6.2057,-88.76297 -4.9622,-119.64107 1.5754,-39.11978 4.19288,-61.62843 11.01428,-94.71585 15.45754,-74.97729 36.27205,-123.38335 80.6371,-187.52895 18.26687,-26.41131 63.65789,-69.67931 97.34113,-92.78829 60.43405,-41.46185 120.98992,-68.053167 191.81165,-84.22839 37.33236,-8.526471 66.4132,-11.536924 110.82809,-11.472948 91.4607,0.13174 164.1485,20.193543 259.9706,71.751728 6.5427,3.52034 19.6568,12.17924 29.1425,19.24201 9.4858,7.06276 17.8457,12.84139 18.5776,12.84139 2.4778,0 41.9914,35.34067 56.0373,50.1193 17.5421,18.45722 43.6449,51.9631 52.2082,67.0152 15.0217,26.40413 30.4377,55.87531 33.1238,63.32413 1.582,4.38683 6.6542,18.29511 11.2715,30.90727 8.8537,24.18391 17.3631,54.11286 20.1263,70.78764 9.8258,59.29404 12.828,98.58524 11.1984,146.56031 -1.9274,56.74228 -8.248,109.04305 -18.3573,151.89881 -9.1509,38.79318 -36.6794,123.72286 -42.866,132.24875 -0.7958,1.09671 -6.1028,12.76171 -11.7932,25.92223 -5.6904,13.16052 -12.8461,27.9661 -15.9016,32.9013 -3.0555,4.93519 -8.5208,14.35692 -12.1452,20.93718 -15.0496,27.32347 -40.0991,64.8913 -66.6567,99.9681 -28.228,37.2832 -88.1062,103.7972 -120.5943,133.9588 -43.5659,40.4462 -91.9392,82.4868 -105.5037,91.6919 -3.788,2.5706 -11.4645,8.6161 -17.059,13.4344 -16.7769,14.4494 -80.45403,58.8853 -83.93718,58.574 -1.10403,-0.099 -6.62915,-3.4636 -12.27805,-7.4776 z m 25.9547,-105.4466 c 67.31583,-44.5481 146.14703,-113.1777 189.59803,-165.0619 26.5256,-31.674 56.8764,-72.70885 72.8199,-98.45398 5.5185,-8.91114 14.4469,-23.32706 19.841,-32.03535 10.3407,-16.69446 26.085,-46.05948 26.085,-48.65175 0,-10.14693 -74.0966,-70.59409 -110.1463,-89.85609 l -14.5621,-7.78077 -30.8661,18.51982 c -60.8626,36.51776 -116.6524,53.87126 -173.19103,53.87126 -46.7926,0 -84.79706,-9.2991 -129.81784,-31.76438 -16.4794,-8.22319 -51.0318,-31.10276 -61.01226,-40.40046 l -6.13599,-5.71627 -18.78924,12.56602 c -10.33405,6.9113 -27.31364,19.14153 -37.73238,27.17828 -25.78024,19.88622 -69.79063,59.6949 -69.79063,63.12766 0,9.91003 39.73921,80.25473 70.43546,124.68191 54.67272,79.1288 123.03547,143.6633 216.70312,204.5678 10.41875,6.7745 22.98106,15.0273 27.91625,18.3396 4.9352,3.3123 10.19837,6.0811 11.69596,6.1528 1.49756,0.072 9.12468,-4.1061 16.94915,-9.2842 z m 26.19043,-430.23193 c 26.9649,-4.41842 45.9117,-10.28065 65.661,-20.31585 60.0539,-30.51513 96.3149,-65.3847 122.769,-118.0581 26.0553,-51.87942 31.9528,-111.64395 17.1429,-173.72423 -14.5399,-60.94799 -51.1819,-115.86167 -99.5783,-149.23323 -50.1871,-34.60636 -116.19646,-51.55288 -175.43456,-45.03917 -30.01819,3.30076 -45.35769,6.98313 -64.91944,15.58447 -55.81781,24.54315 -101.07777,68.02722 -128.91059,123.85244 -15.47926,31.04728 -22.08492,53.28445 -25.75918,86.71525 -6.01181,54.69911 7.90644,115.44086 37.57103,163.96684 31.64667,51.76827 90.36955,93.89854 152.51259,109.41896 40.96371,10.23081 67.16489,12.04012 98.94555,6.83262 z"
                id="path5088"
                inkscape:connector-curvature="0"/>
        <path
                style="opacity:0.32400004;fill:#ff0000;fill-opacity:1;stroke:none;stroke-width:1.99401796;stroke-opacity:1"
                d="m 947.98744,1336.974 c -87.81005,-62.2244 -137.41683,-103.0287 -193.15029,-158.8765 -37.92825,-38.0061 -74.47734,-80.1563 -103.05819,-118.8518 -19.66459,-26.6238 -47.84963,-69.01956 -57.50521,-86.49906 -3.63491,-6.58026 -9.01431,-15.55334 -11.95424,-19.94018 -2.93993,-4.38684 -13.15319,-24.12762 -22.69613,-43.8684 -9.54294,-19.74077 -18.59933,-38.20857 -20.12532,-41.03956 -7.01143,-13.00751 -36.25709,-97.45611 -39.89214,-115.19096 -1.71972,-8.39025 -4.44297,-19.72549 -6.05166,-25.18937 -4.05874,-13.78553 -16.26724,-81.59625 -19.03335,-105.71869 -3.06158,-26.69908 -2.99487,-122.39425 0.10286,-147.55732 9.52111,-77.34062 37.07237,-158.62975 70.91175,-209.22293 18.80786,-28.11958 23.55552,-34.3529 39.86961,-52.34584 47.55438,-52.44808 111.90927,-96.71622 178.4646,-122.761372 75.52856,-29.556649 125.56134,-39.519917 198.40479,-39.509289 91.17118,0.0133 165.49428,20.148432 258.22528,69.956681 6.0319,3.2399 19.7628,11.95563 30.5131,19.36829 81.1427,55.95051 137.2604,127.9011 170.006,217.97117 12.1772,33.4946 19.6222,59.75747 23.9935,84.639 16.0879,91.57472 13.4299,193.83529 -7.4894,288.13559 -9.7029,43.7392 -30.5469,108.34028 -45.0369,139.58125 -3.815,8.22533 -10.0316,22.1336 -13.8146,30.90728 -3.7831,8.77368 -9.389,19.99003 -12.4576,24.92523 -3.0687,4.93519 -8.5448,14.35692 -12.1692,20.93718 -14.9953,27.22489 -40.5834,65.639 -66.5362,99.8877 -28.9941,38.2621 -88.0349,103.7894 -121.211,134.528 -42.4348,39.3168 -91.5476,82.038 -105.3191,91.6126 -3.8385,2.6687 -12.4423,9.3672 -19.1196,14.8855 -22.1792,18.3297 -77.86133,57.0375 -81.5783,56.7098 -1.09671,-0.097 -6.6286,-3.46 -12.29306,-7.474 z m 21.32323,-102.5125 c 5.49134,-3.5643 22.3062,-15.3791 37.36633,-26.2551 80.5709,-58.186 148.0671,-124.7007 201.0634,-198.1397 28.5627,-39.58042 74.6897,-115.78582 74.533,-123.13424 -0.064,-2.98303 -15.2803,-18.84239 -32.8603,-34.24831 -20.7152,-18.15336 -58.884,-45.3824 -77.2426,-55.10371 l -14.4822,-7.66868 -30.9073,18.40551 c -61.4905,36.61802 -116.7071,53.76137 -173.15865,53.76137 -44.22713,0 -85.71948,-9.81788 -125.89331,-29.78875 -19.62323,-9.75494 -54.07602,-32.19326 -64.89588,-42.26522 l -6.02161,-5.60541 -18.90361,12.41579 c -10.39699,6.8287 -27.42804,19.00904 -37.84678,27.06742 -25.93567,20.06002 -69.79063,59.75282 -69.79063,63.16702 0,5.02867 19.34507,43.25565 35.4964,70.14293 53.57844,89.19258 103.78879,147.00988 180.85455,208.25448 35.44632,28.1693 105.12879,75.4751 111.17649,75.4751 0.84063,0 6.02135,-2.9162 11.5127,-6.4805 z M 1020.101,797.39691 c 40.3511,-9.19163 88.6202,-36.67288 120.8197,-68.78676 53.2668,-53.12516 78.6237,-122.94309 71.7432,-197.53848 -10.557,-114.45505 -83.4728,-201.83368 -191.3169,-229.26462 -52.68223,-13.40012 -113.5607,-9.78293 -156.38361,9.29172 -39.21675,17.46836 -69.679,41.02874 -97.22977,75.20024 -43.59393,54.07005 -63.2793,118.23683 -56.49758,184.16067 2.70043,26.25043 3.16859,28.66938 10.0639,51.99897 28.81127,97.47998 106.6795,162.29375 216.04935,179.82911 18.69544,2.99744 58.43236,0.64889 82.75171,-4.89085 z"
                id="path5090"
                inkscape:connector-curvature="0"/>
        <path
                style="opacity:0.32400004;fill:#ff0000;fill-opacity:1;stroke:none;stroke-width:1.99401796;stroke-opacity:1"
                d="m 946.73392,1336.0081 c -6.3539,-4.5795 -16.67294,-11.9019 -22.93121,-16.2721 -104.97677,-73.3062 -203.33788,-167.4969 -272.02375,-260.4903 -19.66459,-26.6238 -47.84963,-69.01956 -57.50521,-86.49906 -3.63491,-6.58026 -9.12795,-15.70289 -12.20677,-20.27253 -8.50913,-12.62933 -44.96594,-88.70215 -52.83212,-110.24245 -18.92215,-51.81525 -26.7166,-75.4793 -30.4094,-92.32319 -2.22326,-10.14089 -4.97265,-21.57858 -6.10975,-25.41706 -3.597,-12.14236 -15.82941,-81.96848 -17.81531,-101.69492 -11.70172,-116.23651 4.34252,-226.08141 45.58088,-312.0638 13.3839,-27.90556 21.5044,-41.56658 42.14112,-70.89345 2.66012,-3.78029 12.55233,-15.47507 21.98271,-25.98841 50.85147,-56.69113 118.20616,-101.8958 192.22574,-129.011073 71.29143,-26.115882 116.14327,-34.445364 185.44367,-34.438935 91.22858,0.0085 165.67048,20.174156 258.22528,69.951088 6.0319,3.24402 19.7628,11.96313 30.5131,19.37579 81.1921,55.98455 137.2413,127.82782 169.9692,217.86441 23.1483,63.68267 31.9602,112.78891 34.1718,190.42871 2.136,74.98792 -9.5013,165.72016 -29.1556,227.31804 -3.1495,9.87039 -7.2356,23.33001 -9.0804,29.91027 -4.6106,16.44556 -16.0585,46.83228 -24.415,64.80558 -3.8242,8.22533 -9.8686,21.68495 -13.4318,29.91027 -6.3308,14.61398 -27.1721,51.84329 -45.7669,81.75474 -17.1562,27.59728 -52.9727,75.89878 -76.8874,103.68888 -28.3104,32.8982 -69.7896,76.9952 -90.1193,95.8068 -48.5344,44.9102 -89.4217,80.4727 -105.3191,91.6031 -3.8385,2.6875 -12.4423,9.4014 -19.1196,14.9197 -22.0501,18.223 -77.82069,57.0136 -81.5783,56.7409 -1.09671,-0.08 -7.19266,-3.8915 -13.54658,-8.471 z m 22.6063,-101.5466 c 70.91688,-45.8947 161.02258,-125.6982 206.56928,-182.9512 37.4544,-47.0808 71.4848,-97.85405 96.7609,-144.36697 5.3042,-9.76078 9.644,-18.81781 9.644,-20.12676 0,-3.25268 -19.6735,-23.07532 -39.1688,-39.46574 -21.9849,-18.48357 -53.5941,-40.72768 -71.0085,-49.97039 l -14.4488,-7.66868 -30.9073,18.40551 c -61.4905,36.61802 -116.7071,53.76137 -173.15865,53.76137 -44.22713,0 -85.71948,-9.81788 -125.89331,-29.78875 -19.62884,-9.75773 -54.07753,-32.19448 -64.90232,-42.27147 l -6.02805,-5.61164 -22.88521,15.46002 c -12.58686,8.50299 -29.61501,20.68447 -37.84033,27.06991 -22.87015,17.75448 -65.8026,57.13519 -65.8026,60.35886 0,4.54937 21.97267,47.23015 38.34541,74.48397 64.21489,106.89116 137.22825,181.68846 247.76472,253.81846 22.53812,14.7071 39.65681,25.1407 41.42877,25.2502 0.83434,0.052 6.02319,-2.8224 11.53079,-6.3867 z M 1020.101,797.34233 c 40.7018,-9.37278 88.2757,-36.45617 120.8412,-68.79377 35.0542,-34.809 56.8524,-74.35841 67.6284,-122.70122 6.2544,-28.05785 6.2993,-72.96825 0.1027,-102.69192 -18.6442,-89.43216 -68.3713,-152.98389 -146.5242,-187.25908 -65.48769,-28.72066 -147.49911,-29.34917 -204.1755,-1.56475 -38.3001,18.77582 -66.9055,41.91562 -92.47069,74.80237 -26.01288,33.4627 -42.57421,68.9801 -51.7721,111.03043 -3.42303,15.64921 -3.41067,77.59739 0.0179,93.71884 15.83431,74.43681 51.45455,128.27958 109.94075,166.18405 32.43609,21.02159 65.2482,33.39992 109.67099,41.37324 21.95824,3.94123 59.53864,2.16566 86.73975,-4.09819 z"
                id="path5092"
                inkscape:connector-curvature="0"/>
        <path
                style="opacity:0.32400004;fill:#ff0000;fill-opacity:1;stroke:none;stroke-width:1.99401796;stroke-opacity:1"
                d="M 930.04917,1323.4377 C 871.50495,1281.3952 840.70788,1256.8658 797.76804,1218.0778 694.12523,1124.4562 611.52375,1015.4857 554.36585,896.97396 516.11911,817.6728 496.30083,752.21811 478.59574,646.72471 c -5.3532,-31.89633 -7.56369,-119.09649 -4.04424,-159.5387 5.62424,-64.6285 25.27728,-135.07773 52.49699,-188.18323 C 585.21702,185.51629 696.70972,102.50092 840.7391,65.434632 882.08692,54.793678 908.05019,51.794447 959.28349,51.740598 c 63.04961,-0.06627 100.19191,5.326938 152.54241,22.149756 85.1175,27.352546 154.6776,69.512236 212.0143,128.499876 56.8987,58.53704 97.1629,135.4677 116.7136,222.99849 20.887,93.51348 17.7925,222.20309 -7.7497,322.29048 -35.7623,140.13458 -97.5139,250.5457 -208.4043,372.6248 -44.2262,48.6885 -111.8066,111.4839 -165.0197,153.3358 -26.1493,20.5662 -82.21061,61.1939 -92.14431,66.7769 l -7.59741,4.27 z m 50.28154,-95.9745 c 51.13679,-34.7585 98.19229,-73.7782 143.59239,-119.0708 34.7407,-34.6584 53.6581,-56.7757 83.3263,-97.4207 29.3936,-40.26893 75.065,-115.43902 75.065,-123.54883 0,-4.46279 -23.046,-27.51496 -45.9551,-45.96738 -20.3667,-16.4047 -59.5551,-42.84275 -71.0897,-47.95998 l -8.3709,-3.71364 -26.1896,15.42714 c -57.5606,33.90636 -100.0047,49.30249 -151.48543,54.94963 -49.12182,5.3884 -104.139,-5.14339 -151.54536,-29.00991 -18.26668,-9.19627 -49.67031,-29.21816 -63.21679,-40.30488 l -8.38128,-6.85942 -21.52006,14.62038 c -41.85447,28.43527 -104.28965,82.06434 -104.28965,89.58021 0,8.85015 39.7138,79.33378 67.30766,119.45688 44.27416,64.3774 96.95549,119.1641 162.17242,168.6537 28.206,21.4041 93.398,64.6464 97.46058,64.6464 1.80915,0 12.21294,-6.0654 23.11952,-13.4788 z m 19.83019,-426.20663 c 26.7803,-3.99157 43.969,-9.38361 67.7966,-21.26764 78.2868,-39.04562 128.3848,-103.27503 142.8267,-183.11467 4.1885,-23.15521 3.2196,-70.42297 -1.9458,-94.92335 -23.5145,-111.53549 -101.1827,-186.91806 -211.48516,-205.26155 -29.47055,-4.901 -75.3316,-3.23073 -102.11537,3.71908 -89.93801,23.33695 -165.51366,108.21478 -182.37186,204.81896 -5.17582,29.65956 -3.09161,75.60481 4.79056,105.60499 16.5614,63.03395 45.90607,106.42482 97.37528,143.98514 14.27112,10.41453 41.93252,25.05968 60.50289,32.03284 12.41988,4.66367 50.2854,14.3075 62.81156,15.99725 14.17205,1.91178 43.3523,1.16071 61.8146,-1.59105 z"
                id="path5122"
                inkscape:connector-curvature="0"/>
        <path
                style="opacity:0.32400004;fill:#ff0000;fill-opacity:1;stroke:none;stroke-width:1.99401796;stroke-opacity:1"
                d="M 928.01639,1321.4158 C 830.11105,1251.1068 765.81819,1193.4587 697.95737,1115.1335 608.21996,1011.5583 532.42314,872.88857 501.77377,756.21701 481.27945,678.2022 472.77866,616.28838 472.77768,545.02979 472.77619,436.26978 498.83407,339.40776 548.6828,262.87626 590.1889,199.153 652.27721,145.21087 727.22401,107.76024 c 51.3074,-25.638108 114.3204,-45.502642 165.86052,-52.286688 26.22706,-3.452179 101.57134,-3.994222 129.01057,-0.928131 87.4499,9.771782 186.2024,51.116139 257.1464,107.658609 93.5506,74.55994 151.393,181.13737 169.8923,313.03514 5.0983,36.35013 5.0977,141.32632 -10e-4,180.45862 -7.8147,59.97788 -16.9687,99.73954 -36.2662,157.52741 -51.2548,153.48622 -157.951,296.1978 -328.957,439.9963 -39.3993,33.1308 -117.08509,89.4155 -123.41393,89.4155 -1.61086,0 -16.22654,-9.5496 -32.47928,-21.2212 z m 51.4468,-92.9815 c 70.39831,-47.0778 155.32301,-123.981 201.98421,-182.906 40.3589,-50.96633 100.867,-146.04888 100.867,-158.5027 0,-6.83358 -37.0596,-40.65862 -70.2595,-64.12728 -24.077,-17.01972 -49.644,-32.60432 -53.4884,-32.60432 -1.924,0 -12.735,5.48458 -24.0243,12.18797 -71.0616,42.19506 -122.3422,58.43097 -183.23478,58.01376 -58.50283,-0.40084 -106.86512,-16.07687 -160.51844,-52.03007 -13.16052,-8.8189 -26.38405,-18.02763 -29.38563,-20.46385 l -5.45742,-4.42951 -14.46068,9.8414 c -50.37147,34.28099 -111.21472,86.28869 -111.21472,95.0643 0,8.24092 32.76313,67.52804 60.26694,109.05715 46.58848,70.34585 99.39468,126.14425 170.04213,179.67745 29.17039,22.1039 92.3336,63.7294 96.70401,63.7294 1.91174,0 11.89256,-5.6284 22.17958,-12.5077 z M 1001.763,801.28209 c 23.8978,-3.60213 51.241,-12.52729 71.1795,-23.23391 72.377,-38.86507 116.7694,-93.81372 135.0919,-167.21579 4.6009,-18.43181 5.2308,-24.99352 5.2642,-54.8355 0.042,-37.45415 -2.6738,-55.9391 -12.7475,-86.76586 -28.1143,-86.03326 -90.9001,-144.77262 -179.4531,-167.88773 -27.8861,-7.27916 -72.06841,-9.7057 -102.2907,-5.61793 -86.89067,11.7526 -165.8469,81.15902 -197.06486,173.22973 -8.27893,24.41687 -11.71119,46.74682 -11.71119,76.1916 0,31.50385 2.50568,50.18058 10.24158,76.33837 27.7039,93.67655 99.6765,157.07668 203.09407,178.90402 21.07924,4.44902 52.43473,4.80616 78.3961,0.893 z"
                id="path5124"
                inkscape:connector-curvature="0"/>
        <path
                style="opacity:0.32400004;fill:#ff0000;fill-opacity:1;stroke:none;stroke-width:1.99401796;stroke-opacity:1"
                d="M 931.21673,1323.5109 C 809.94248,1236.1957 728.03103,1158.5517 656.88805,1063.4745 535.39603,901.10937 472.82501,724.18846 472.75239,542.82684 472.70254,418.3555 511.17837,302.21672 578.89025,222.45112 633.95365,157.5856 709.87819,108.28996 801.88311,77.6682 864.33663,56.881962 903.58026,51.378436 977.22965,53.077607 c 61.49335,1.418717 92.44275,6.758054 145.60565,25.11962 172.7995,59.682083 283.2294,183.295863 318.9801,357.062303 8.8335,42.93529 10.845,67.29423 10.7936,130.70745 -0.077,94.95266 -9.5743,154.76718 -38.3948,241.81356 -35.1766,106.2437 -88.1507,195.58286 -174.6711,294.57726 -40.4465,46.2778 -111.3189,114.3627 -163.3548,156.9298 -41.5772,34.0115 -110.0761,83.3494 -115.71927,83.3494 -1.47816,0 -14.64171,-8.6068 -29.2523,-19.1261 z m 48.24646,-95.0766 c 81.55291,-54.5373 165.98381,-133.4038 218.04941,-203.6789 38.3351,-51.7424 84.8018,-127.23837 84.8018,-137.78009 0,-6.90975 -34.6249,-38.69968 -68.7936,-63.16113 -22.858,-16.36403 -50.8117,-33.52018 -54.6169,-33.52018 -1.6165,0 -15.5623,7.13926 -30.9906,15.86504 -69.3019,39.19488 -106.7095,51.29163 -164.85647,53.31075 -26.30524,0.91344 -37.37783,0.43787 -53.83848,-2.31236 -46.55169,-7.77781 -92.83861,-28.58054 -137.37254,-61.73932 -8.42198,-6.27079 -16.20288,-10.65969 -17.81135,-10.0467 -5.15978,1.96642 -45.03101,30.66023 -66.1603,47.61308 -29.33009,23.53266 -57.60363,50.64606 -57.60363,55.23997 0,10.19105 44.78634,88.55077 74.20509,129.83174 43.96546,61.6933 96.46741,114.8928 159.98189,162.1075 30.70439,22.8247 88.68279,60.7783 92.8457,60.7783 1.90098,0 11.87296,-5.6284 22.15998,-12.5077 z m 23.63391,-427.26142 c 77.4268,-12.55657 152.3012,-68.54056 186.5616,-139.49304 18.5974,-38.51487 23.4797,-60.66036 23.5193,-106.67996 0.035,-40.78293 -3.8242,-63.25004 -16.7838,-97.70632 -30.3225,-80.62011 -92.4472,-135.31377 -178.1199,-156.81395 -25.19229,-6.32219 -71.50772,-8.53593 -99.467,-4.75424 -93.56941,12.65595 -176.24837,91.13175 -203.11563,192.78979 -4.14024,15.6655 -4.65998,22.07773 -4.6616,57.51164 -10e-4,31.94702 0.74004,43.0537 3.72746,55.83251 18.59252,79.5307 63.13434,137.13142 133.41037,172.52412 51.73366,26.0543 103.8715,35.06967 154.9292,26.78945 z"
                id="path5126"
                inkscape:connector-curvature="0"/>
        <path
                style="opacity:0.32400004;fill:#ff0000;fill-opacity:1;stroke:none;stroke-width:1.99401796;stroke-opacity:1"
                d="M 928.23591,1321.0894 C 805.06858,1232.9491 714.52637,1144.9456 641.92841,1042.8096 570.61856,942.48582 522.3269,839.71934 496.56208,733.46449 446.94132,528.82714 476.58707,344.81538 578.80258,222.9959 637.00353,153.63256 722.58762,100.33254 822.28549,71.359729 870.36184,57.388444 905.93256,52.538606 960.2805,52.544999 c 60.7054,0.0071 105.8745,6.886223 156.4377,23.824898 183.6568,61.525063 297.7411,193.598303 329.1583,381.060533 8.3793,49.99807 8.3761,161.722 -0.01,219.20455 -16.148,110.73427 -60.1513,224.21409 -123.7134,319.04286 -65.7814,98.13926 -172.9706,208.90596 -283.113,292.56156 -33.0383,25.0933 -75.41359,54.4079 -78.60262,54.3761 -1.18531,-0.012 -15.67785,-9.6986 -32.20567,-21.5261 z m 51.93284,-93.1242 c 49.73235,-33.2505 96.58655,-72.3494 145.61645,-121.514 38.6982,-38.8045 59.3326,-63.2425 87.9354,-104.1446 33.4151,-47.78381 68.5938,-106.79057 68.5938,-115.05552 0,-7.17541 -34.0009,-38.52873 -68.7936,-63.4369 -22.574,-16.16076 -50.7969,-33.52018 -54.497,-33.52018 -1.5506,0 -17.3629,8.1056 -35.1385,18.01244 -52.5415,29.28291 -87.6414,42.49529 -129.34229,48.68728 -74.01027,10.98947 -140.96829,-5.9888 -210.1456,-53.2857 -11.59282,-7.92607 -22.76191,-15.65091 -24.82024,-17.16633 -3.3272,-2.44959 -5.0112,-1.91796 -15.17856,4.79171 -46.74736,30.84961 -114.12808,88.20582 -114.12808,97.14873 0,9.95105 46.18776,90.58066 74.64866,130.31357 44.51934,62.1514 98.19838,116.1933 162.69587,163.7956 28.95491,21.3702 85.79597,58.3507 89.68815,58.3507 1.90098,0 12.19047,-5.8395 22.86554,-12.9768 z m 22.92835,-426.79232 c 50.7217,-8.22572 98.9307,-33.7873 138.7732,-73.58092 51.3314,-51.26843 75.8331,-114.94923 71.7767,-186.5502 -6.9782,-123.17741 -85.1683,-216.6446 -202.8428,-242.47519 -19.64067,-4.31131 -69.79604,-5.90975 -92.13888,-2.93647 -93.00873,12.37715 -176.14787,91.38394 -202.97365,192.88506 -4.14024,15.6655 -4.65998,22.07773 -4.6616,57.51164 -0.002,43.61705 1.85434,55.88351 13.42834,88.7338 30.19942,85.71452 101.11037,145.21477 196.93874,165.24819 23.42303,4.89671 55.83601,5.35855 81.69995,1.16409 z"
                id="path5128"
                inkscape:connector-curvature="0"/>
        <path
                style="opacity:0.32400004;fill:#ff0000;fill-opacity:1;stroke:none;stroke-width:1.99401796;stroke-opacity:1"
                d="m 950.74528,1336.727 c -14.30041,-9.069 -59.29447,-42.2352 -86.17764,-63.5234 C 734.60299,1170.2869 640.19396,1058.7553 568.88428,923.8932 513.49908,819.14776 481.19127,703.08377 474.39301,584.43861 464.80554,417.11532 515.94716,274.00268 618.03851,182.4668 669.74816,136.10354 730.93446,101.33521 802.75308,77.505089 853.28622,60.737703 887.25103,54.772785 941.33733,53.166847 c 80.53977,-2.391399 134.38527,6.498648 204.24207,33.720964 124.1108,48.364449 215.6029,133.965939 264.176,247.167389 20.135,46.92531 35.4807,106.07707 39.9897,154.14508 2.6629,28.38832 2.6445,125.00874 -0.029,154.53639 -10.0887,111.4075 -51.6345,232.00803 -114.5339,332.4736 -68.5919,109.55773 -185.8838,231.65843 -312.0897,324.88513 -27.80337,20.5379 -55.9392,39.9485 -60.37102,41.6491 -1.39259,0.5344 -6.7817,-1.7235 -11.9758,-5.0175 z m 29.42347,-108.7618 c 49.73235,-33.2505 96.58655,-72.3494 145.61645,-121.514 38.6982,-38.8045 59.3326,-63.2425 87.9354,-104.1446 33.4151,-47.78381 68.5938,-106.79057 68.5938,-115.05552 0,-7.17541 -34.0009,-38.52873 -68.7936,-63.4369 -22.6005,-16.17968 -50.7983,-33.52018 -54.508,-33.52018 -1.5567,0 -16.6405,7.68568 -33.5196,17.0793 -49.6918,27.65464 -81.4788,40.42634 -119.6015,48.05479 -26.76925,5.35657 -85.1191,4.93913 -109.66596,-0.78458 -40.20646,-9.37512 -81.90211,-29.10493 -121.38891,-57.43954 -10.01631,-7.18742 -19.20823,-12.40628 -20.80237,-11.81085 -5.1001,1.90491 -44.91123,30.54241 -66.1603,47.59137 -29.33009,23.53266 -57.60363,50.64606 -57.60363,55.23997 0,10.18936 45.79111,90.28459 74.64866,130.57124 43.69764,61.0042 96.85473,114.771 159.53832,161.368 30.70439,22.8247 88.68279,60.7783 92.8457,60.7783 1.90098,0 12.19047,-5.8395 22.86554,-12.9768 z m 22.92835,-426.79232 c 50.7217,-8.22572 98.9307,-33.7873 138.7732,-73.58092 51.3314,-51.26843 75.8331,-114.94923 71.7767,-186.5502 -6.9782,-123.17741 -85.1683,-216.6446 -202.8428,-242.47519 -19.64067,-4.31131 -69.79604,-5.90975 -92.13888,-2.93647 -93.00873,12.37715 -176.14787,91.38394 -202.97365,192.88506 -4.14024,15.6655 -4.65998,22.07773 -4.6616,57.51164 -0.002,43.61871 1.85498,55.88838 13.42948,88.7338 30.17006,85.61483 101.22931,145.23988 196.9376,165.24819 23.42303,4.89671 55.83601,5.35855 81.69995,1.16409 z"
                id="path5130"
                inkscape:connector-curvature="0"/>
        <path
                style="opacity:0.32400004;fill:#ff0000;fill-opacity:1;stroke:none;stroke-width:1.99401796;stroke-opacity:1"
                d="M 942.95125,1331.3034 C 858.36367,1273.4437 773.64481,1199.7088 710.82997,1129.277 630.5055,1039.2124 563.32401,928.93009 523.30228,821.43946 486.93745,723.77055 468.21583,603.67897 474.39727,507.73368 488.7401,285.11131 605.08786,138.8673 821.38273,71.588212 874.59139,55.037525 942.72953,48.968587 1012.3339,54.580544 c 107.3119,8.652178 226.9823,64.319266 303.7244,141.283446 75.6907,75.90982 123.3622,181.2095 133.9089,295.7867 3.6125,39.24521 1.3154,148.62403 -3.843,182.99027 -18.3811,122.4572 -65.3188,238.72729 -137.3148,340.14464 -69.1381,97.3914 -176.5821,204.6984 -285.7173,285.3526 -24.89142,18.3955 -60.06785,42.4988 -62.02299,42.4988 -0.85184,0 -9.00488,-5.1001 -18.11786,-11.3336 z m 27.0788,-96.6025 c 56.26885,-34.4611 142.40475,-109.2785 195.23555,-169.5808 40.5835,-46.3232 117.0488,-162.50427 117.0488,-177.84371 0,-7.07593 -34.5443,-38.94305 -68.7936,-63.46221 -22.6005,-16.17968 -50.7983,-33.52018 -54.508,-33.52018 -1.5567,0 -16.6405,7.68568 -33.5196,17.0793 -67.2324,37.41637 -105.2017,49.60249 -162.22167,52.0645 -63.42924,2.73877 -116.3088,-13.90957 -180.24674,-56.74795 l -27.70437,-18.56191 -11.17898,7.37621 c -46.48289,30.67076 -113.87091,88.06167 -113.87091,96.97798 0,8.57119 33.16045,68.22128 62.36309,112.18077 45.6412,68.7049 104.68293,130.0653 175.25079,182.1333 26.70861,19.7067 85.59944,58.1458 89.08261,58.1458 1.57982,0 7.45818,-2.8084 13.06303,-6.2411 z M 1001.763,801.28209 c 50.7175,-7.64468 99.5661,-33.35736 140.0999,-73.74516 35.3018,-35.1745 56.9247,-74.34614 68.0259,-123.23435 5.1648,-22.74475 4.5419,-78.12403 -1.1825,-105.13464 -22.0114,-103.86189 -95.2109,-178.05976 -197.9021,-200.60137 -19.64067,-4.31131 -69.79604,-5.90975 -92.13888,-2.93647 -95.39236,12.69435 -181.12346,96.60371 -204.90027,200.54626 -1.88381,8.23519 -2.67739,24.70454 -2.54622,52.84147 0.17308,37.11497 0.65661,42.62092 5.25392,59.82054 21.41328,80.11238 66.23986,134.60309 139.29295,169.32299 47.89871,22.76478 96.88822,30.52297 145.9973,23.12073 z"
                id="path5132"
                inkscape:connector-curvature="0"/>
        <path
                style="opacity:0.32400004;fill:#ff0000;fill-opacity:1;stroke:none;stroke-width:1.99401796;stroke-opacity:1"
                d="M 942.95125,1331.3034 C 832.64561,1255.8521 728.85637,1158.7021 657.88386,1064.4715 606.14657,995.77956 559.94278,914.06853 529.90982,838.15043 473.69515,696.04955 458.32315,535.9286 488.65653,408.43957 521.44642,270.62601 600.86891,171.41643 728.91468,108.32413 c 86.00827,-42.379055 157.94907,-58.156891 251.306,-55.115665 45.11492,1.469678 70.47852,4.884738 106.33292,14.317099 103.8692,27.325262 198.0355,85.790066 259.1824,160.917936 56.9156,69.92917 95.3824,167.0784 104.2352,263.25 3.2677,35.49779 1.3788,143.90981 -3.0834,176.96541 -12.2929,91.06695 -44.5825,187.62994 -90.154,269.60894 -43.0132,77.37675 -94.9559,143.93735 -174.0275,223.00325 -56.9919,56.9879 -103.0902,97.0941 -159.6142,138.8671 -24.89142,18.3955 -60.06785,42.4988 -62.02299,42.4988 -0.85184,0 -9.00488,-5.1001 -18.11786,-11.3336 z m 24.07296,-94.6885 c 14.69956,-8.8167 53.02349,-36.6062 75.27169,-54.5812 69.985,-56.5429 127.8809,-117.1054 170.7486,-178.6131 32.0875,-46.03989 69.2699,-108.2353 69.2699,-115.86844 0,-4.66638 -16.1198,-21.67974 -37.6493,-39.73629 -20.7103,-17.36947 -75.6433,-54.85944 -83.1416,-56.74139 -3.35,-0.8408 -11.537,2.71435 -30.1395,13.08777 -76.9763,42.92477 -113.6464,54.31749 -176.08855,54.70744 -21.84163,0.13639 -40.48975,-0.80189 -49.85044,-2.50828 -38.54126,-7.02574 -82.46888,-26.46113 -124.95835,-55.28677 l -25.07196,-17.0093 -11.22612,7.40752 c -47.6265,31.42618 -113.91805,88.17551 -113.91805,97.52032 0,3.88534 14.26716,32.36777 29.07977,58.05378 38.81052,67.29984 74.94003,114.69944 124.944,163.91844 48.64961,47.8859 77.08018,69.6671 166.01611,127.1881 5.63948,3.6475 8.50752,3.3834 16.7138,-1.5386 z M 1001.763,801.28209 c 50.7793,-7.65399 99.3467,-33.24761 140.0451,-73.79966 35.4313,-35.30394 57.0982,-74.52243 68.0528,-123.17985 5.0719,-22.52806 4.4986,-78.2024 -1.0775,-104.63697 -11.1215,-52.72389 -34.1399,-96.15763 -70.0383,-132.15633 -34.9545,-35.0522 -77.586,-58.00847 -127.9409,-68.89394 -20.47726,-4.42664 -69.02809,-5.98682 -91.86197,-2.95196 -73.85762,9.81643 -143.53678,62.41978 -181.49581,137.01784 -11.31581,22.23813 -18.88943,42.54511 -23.68089,63.49514 -4.33843,18.96909 -3.70572,85.45521 1.0057,105.68295 18.98062,81.49026 66.48421,140.8896 140.99447,176.30205 47.89871,22.76478 96.88822,30.52297 145.9973,23.12073 z"
                id="path5134"
                inkscape:connector-curvature="0"/>
        <path
                style="opacity:0.32400004;fill:#00ff00;fill-opacity:1;stroke:none;stroke-width:1.99401796;stroke-opacity:1"
                d="m 138.14428,1602.3578 c -2.12489,-3.016 -5.89549,-9.5214 -8.37912,-14.4566 -2.48363,-4.9352 -6.96376,-12.5624 -9.95584,-16.9492 -8.80725,-12.9127 -25.929604,-40.5551 -25.929604,-41.8608 0,-0.6623 -6.62509,-11.704 -14.722424,-24.5371 -22.15471,-35.112 -35.101069,-61.9795 -35.11879,-72.8818 -0.01106,-6.8022 8.45934,-15.414 21.808766,-22.1729 17.097852,-8.6568 92.853282,-36.1801 130.724372,-47.4944 30.90686,-9.2338 56.82951,-18.1353 56.82951,-19.5146 0,-2.3859 -5.77123,-3.779 -63.80857,-15.4022 -16.53101,-3.3107 -12.53247,-3.407 162.07676,-3.9036 l 179.02594,-0.5092 9.50259,6.4913 c 5.22642,3.5701 17.40401,12.3237 27.0613,19.4523 9.65727,7.1286 28.90718,21.2776 42.77755,31.4423 50.01308,36.6511 56.12614,41.3139 56.12614,42.8105 0,2.0758 2.48095,2.5515 -39.28082,-7.5308 -54.17507,-13.0792 -65.95348,-15.2929 -73.06112,-13.7318 -3.46175,0.7603 -17.96091,6.7388 -32.22033,13.2856 -14.25945,6.5468 -34.00204,15.2886 -43.87243,19.4263 -9.87038,4.1377 -31.7041,13.9153 -48.51936,21.728 -16.81525,7.8128 -31.3639,14.205 -32.33033,14.205 -1.94133,0 -44.53393,19.6626 -56.02608,25.864 -3.99553,2.1561 -12.96861,6.0794 -19.94018,8.7184 -6.97156,2.6391 -25.23788,10.7885 -40.59182,18.1098 -15.35394,7.3214 -36.44068,17.375 -46.85942,22.3412 -38.63674,18.417 -64.65907,35.3864 -78.34286,51.0882 -5.4956,6.3061 -10.69364,11.4656 -11.5512,11.4656 -0.85756,0 -3.29774,-2.4676 -5.42263,-5.4835 z"
                id="path5136"
                inkscape:connector-curvature="0"/>
        <path
                style="opacity:0.32400004;fill:#00ff00;fill-opacity:1;stroke:none;stroke-width:1.99401796;stroke-opacity:1"
                d="m 422.89267,1725.3011 c -78.5351,-2.7928 -130.96059,-8.9986 -175.22774,-20.7424 -13.15587,-3.4901 -35.68023,-16.6236 -45.04188,-26.263 -14.81243,-15.2519 -19.46663,-44.0631 -10.25387,-63.4753 8.89577,-18.7443 33.67165,-37.9368 70.72852,-54.7894 13.85932,-6.3029 28.77471,-13.3783 33.1453,-15.723 4.3706,-2.3448 8.72153,-4.2633 9.66874,-4.2633 0.94721,0 4.54973,-1.2676 8.0056,-2.817 3.45588,-1.5493 12.11591,-5.2695 19.24453,-8.2671 7.12861,-2.9976 20.58823,-8.8628 29.91026,-13.0339 l 16.94916,-7.5838 193.41973,-2.0911 c 106.38086,-1.1502 221.37611,-2.0931 255.545,-2.0953 h 62.12529 l -1.03875,28.4148 c -3.30402,90.3818 -7.81888,186.8669 -8.78953,187.8376 -3.15707,3.157 -390.84833,7.2982 -458.39036,4.8963 z"
                id="path5138"
                inkscape:connector-curvature="0"/>
        <path
                style="opacity:0.32400004;fill:#00ff00;fill-opacity:1;stroke:none;stroke-width:1.99401796;stroke-opacity:1"
                d="m 1348.117,1828.4419 c -6.0319,-4.5307 -18.2475,-13.1728 -27.1457,-19.2048 -8.8981,-6.0319 -30.7754,-21.2861 -48.6161,-33.8983 -35.7243,-25.2546 -61.4435,-43.2706 -125.634,-88.005 -6.0319,-4.2036 -18.5942,-13.0453 -27.9163,-19.6483 -9.322,-6.6029 -25.4736,-17.8776 -35.8923,-25.0549 -40.7319,-28.0595 -52.8415,-37.1342 -52.8415,-39.5979 0,-2.5544 22.8416,-22.227 49.982,-43.0478 18.3863,-14.105 55.403,-44.097 56.698,-45.9383 0.5483,-0.7797 7.3439,-6.2411 15.1012,-12.1365 13.7191,-10.4262 25.933,-20.2113 56.6276,-45.3674 8.1946,-6.7159 15.5001,-12.2108 16.2345,-12.2108 0.7343,0 1.923,2.3423 2.6415,5.2051 0.7186,2.8628 2.9465,8.9196 4.951,13.4596 2.0045,4.54 6.212,16.4827 9.3501,26.5394 l 5.7057,18.2848 19.9683,1.1027 c 100.8654,5.5703 423.3738,0.7185 522.4283,-7.8593 31.7883,-2.7527 43.2381,-4.4945 51.1769,-7.785 1.8083,-0.7495 3.8156,-0.5089 4.4606,0.5347 0.9875,1.5978 -9.1664,27.9935 -19.6191,51.0014 -1.5483,3.4081 -6.4002,14.721 -10.7819,25.1397 -8.2736,19.6728 -45.6598,93.0869 -49.8724,97.933 -1.322,1.5207 -6.9468,9.7795 -12.4998,18.3528 -9.5039,14.6733 -18.6556,23.3326 -32.6223,30.8674 -5.3916,2.9087 -25.1037,3.2355 -199.7302,3.3111 -106.5614,0.046 -194.293,0.6272 -194.9591,1.2911 -0.6661,0.6639 2.4599,11.8803 6.9465,24.9253 4.4867,13.0449 9.4394,28.464 11.006,34.2646 1.5666,5.8005 6.0984,20.4241 10.0708,32.4968 3.9723,12.0727 6.8908,22.2501 6.4856,22.6164 -0.4053,0.3663 -5.672,-3.0409 -11.7039,-7.5716 z"
                id="path5140"
                inkscape:connector-curvature="0"/>
        <path
                style="opacity:0.32400004;fill:#00ff00;fill-opacity:1;stroke:none;stroke-width:1.99401796;stroke-opacity:1"
                d="m 1546.5218,1477.8408 c -9.8704,-4.3312 -23.33,-10.1691 -29.9103,-12.9731 -6.5803,-2.8039 -16.4507,-7.1289 -21.9342,-9.611 -25.4019,-11.498 -42.4819,-18.9009 -43.6084,-18.9009 -1.2978,0 -32.12,-13.6763 -56.6347,-25.1296 -7.9752,-3.7261 -15.3945,-6.7747 -16.4873,-6.7747 -1.0928,0 -16.5517,-6.6139 -34.3531,-14.6975 -17.8014,-8.0836 -37.3013,-16.535 -43.3332,-18.7809 -6.032,-2.2458 -17.6223,-7.191 -25.7563,-10.9892 l -14.7892,-6.9059 13.7921,-3.1226 c 7.5858,-1.7174 20.0734,-4.1172 27.7504,-5.3327 7.6769,-1.2156 21.5852,-3.8921 30.9072,-5.9478 9.3221,-2.0558 31.3061,-6.1044 48.8535,-8.997 17.5473,-2.8926 39.0827,-6.8964 47.8564,-8.8974 8.7737,-2.001 22.2333,-4.6769 29.9103,-5.9463 7.6769,-1.2695 28.8625,-5.4779 47.0789,-9.352 l 33.1208,-7.0438 41.6549,14.0244 c 22.9102,7.7135 47.936,15.7998 55.613,17.9696 16.5342,4.6732 118.8525,39.6368 134.5479,45.977 21.7058,8.768 53.1468,26.1574 65.1588,36.038 17.0883,14.0562 22.6702,27.2346 15.7315,37.141 -11.8589,16.931 -101.104,30.1962 -226.4053,33.6524 -21.3859,0.5899 -43.8186,1.3881 -49.8505,1.7738 -9.3058,0.595 -13.6856,-0.4917 -28.9132,-7.1738 z"
                id="path5142"
                inkscape:connector-curvature="0"/>
        <path
                style="opacity:0.32400004;fill:#00ff00;fill-opacity:1;stroke:none;stroke-width:1.99401796;stroke-opacity:1"
                d="m 1200.5597,1297.3726 -120.6381,-0.6312 6.8404,-4.161 c 18.6761,-11.3606 60.8327,-46.7819 86.3655,-72.5671 l 28.5895,-28.872 23.203,3.8447 c 12.7616,2.1146 32.732,6.6775 44.3787,10.1399 21.9506,6.5255 75.5164,26.0302 85.1068,30.9896 7.0137,3.6269 15.2062,3.5774 32.5956,-0.1968 7.6765,-1.6661 20.6872,-3.8884 28.9125,-4.9385 8.2253,-1.05 17.1984,-2.484 19.9402,-3.1867 2.8977,-0.7427 -0.4419,2.4183 -7.9761,7.5494 -22.0741,15.0335 -63.5384,44.2221 -83.3636,58.6835 -5.7866,4.221 -0.4498,4.0969 -143.9544,3.3462 z"
                id="path5144"
                inkscape:connector-curvature="0"/>
        <path
                style="opacity:0.32400004;fill:#00ff00;fill-opacity:1;stroke:none;stroke-width:1.99401796;stroke-opacity:1"
                d="m 717.01031,1315.5774 c -22.00626,-4.2989 -46.33696,-8.4422 -105.68295,-17.9967 -17.54735,-2.8251 -44.91525,-7.6362 -60.81754,-10.6914 -15.90229,-3.0552 -41.24171,-7.6538 -56.30981,-10.219 -15.06809,-2.5652 -26.7331,-5.2192 -25.92223,-5.8978 0.81087,-0.6785 11.3447,-5.0743 23.40851,-9.7684 12.06381,-4.6941 28.66401,-11.4492 36.88933,-15.0113 16.52026,-7.1545 15.72757,-6.8651 60.81755,-22.2038 63.01554,-21.4366 118.89415,-31.4605 135.96191,-24.3899 3.08736,1.279 6.06201,2.4241 6.61037,2.5447 0.54835,0.1205 7.72682,6.5713 15.95214,14.3349 29.87482,28.1981 39.21535,36.2534 57.32802,49.4402 10.14456,7.3857 18.44466,14.2331 18.44466,15.2165 0,2.4877 -11.81467,8.082 -48.82313,23.1181 -17.53071,7.1225 -32.78494,13.5933 -33.8983,14.3794 -1.11338,0.7861 -11.89472,-0.4988 -23.95853,-2.8555 z"
                id="path5146"
                inkscape:connector-curvature="0"/>
        <path
                style="opacity:0.32400004;fill:#00ff00;fill-opacity:1;stroke:none;stroke-width:1.99401796;stroke-opacity:1"
                d="m 400.95847,1724.3185 c -122.63617,-8.3838 -165.80411,-17.9292 -194.22729,-42.9483 -12.17314,-10.7152 -17.8941,-24.6467 -17.91202,-43.6186 -0.0166,-17.6277 4.19975,-27.4595 17.46491,-40.7247 18.51925,-18.5192 54.11181,-37.2803 137.84489,-72.6592 l 37.88634,-16.0077 253.73834,-2.4366 c 139.55609,-1.3401 254.05745,-2.0625 254.44746,-1.6053 0.81762,0.9585 -3.50281,113.0286 -6.67865,173.2415 -1.22793,23.2813 -3.02931,41.347 -4.19459,42.0672 -1.12333,0.6943 -20.15815,1.85 -42.29962,2.5684 -45.22517,1.4672 -419.04105,3.2875 -436.06977,2.1233 z"
                id="path5148"
                inkscape:connector-curvature="0"/>
        <path
                style="opacity:0.32400004;fill:#00ff00;fill-opacity:1;stroke:none;stroke-width:1.99401796;stroke-opacity:1"
                d="m 136.31418,1598.362 c -42.09039,-68.3513 -75.15213,-124.2408 -82.270613,-139.075 -11.243503,-23.4303 -11.81627,-28.7162 -4.067869,-37.5411 11.240659,-12.8024 51.342052,-28.5801 171.022662,-67.288 17.82153,-5.7639 32.40279,-11.1881 32.40279,-12.0537 0,-2.0743 -9.34335,-4.5777 -41.87438,-11.22 l -26.91924,-5.4964 54.83549,-1.2287 c 30.15952,-0.6758 108.01474,-1.3487 173.01159,-1.4955 l 118.17611,-0.2668 14.42608,10.352 c 42.33968,30.3823 117.08398,85.9082 119.40153,88.7007 2.33065,2.8082 2.16505,3.0615 -1.30213,1.9909 -9.1336,-2.8202 -90.86995,-21.3808 -99.1595,-22.517 -8.40329,-1.1518 -12.92557,0.4955 -66.58525,24.2549 -31.66329,14.0199 -73.27252,32.4113 -92.46494,40.8697 -19.19242,8.4585 -42.97109,19.1568 -52.84147,23.7742 -9.87039,4.6173 -29.16252,13.3579 -42.87139,19.4234 -47.87856,21.1841 -108.81786,51.9681 -126.94218,64.1258 -10.04751,6.7398 -22.16117,16.56 -26.91924,21.8225 -4.75807,5.2626 -9.68136,10.1901 -10.94065,10.9502 -1.39389,0.8412 -4.5695,-2.3206 -8.1174,-8.0821 z"
                id="path5150"
                inkscape:connector-curvature="0"/>
        <path
                style="opacity:0.32400004;fill:#00ff00;fill-opacity:1;stroke:none;stroke-width:1.99401796;stroke-opacity:1"
                d="m 725.98339,1316.7803 c -3.83848,-0.8083 -34.79561,-6.1346 -68.79361,-11.8361 -91.30569,-15.3121 -183.23802,-32.1215 -184.95365,-33.818 -1.80299,-1.7829 74.28775,-32.4902 112.17199,-45.2682 36.31945,-12.2503 82.48521,-23.918 106.38479,-26.8873 31.23024,-3.88 35.28139,-2.3778 63.10673,23.4007 12.61217,11.6844 33.61969,29.7463 46.68339,40.1375 l 23.75219,18.893 -7.80004,4.0558 c -13.63781,7.0912 -77.4688,33.2412 -80.5817,33.0123 -1.64506,-0.1209 -6.1316,-0.8813 -9.97009,-1.6897 z"
                id="path5152"
                inkscape:connector-curvature="0"/>
        <path
                style="opacity:0.32400004;fill:#00ff00;fill-opacity:1;stroke:none;stroke-width:1.99401796;stroke-opacity:1"
                d="m 1086.8669,1293.1804 c 27.2247,-18.6119 59.8251,-46.4586 89.6252,-76.5562 l 25.0646,-25.3148 25.9222,4.7994 c 31.7446,5.8773 56.9073,13.306 94.7158,27.9629 41.7573,16.1876 41.4408,16.1163 58.3112,13.1396 27.5758,-4.8656 51.9379,-8.3199 52.7749,-7.483 0.4625,0.4625 -10.6588,8.8866 -24.7138,18.7202 -14.0551,9.8337 -35.3111,24.7299 -47.2356,33.1027 l -21.6809,15.2233 -128.8674,-0.1045 c -121.8475,-0.099 -128.5978,-0.289 -123.9162,-3.4896 z"
                id="path5154"
                inkscape:connector-curvature="0"/>
        <path
                style="opacity:0.32400004;fill:#00ff00;fill-opacity:1;stroke:none;stroke-width:1.99401796;stroke-opacity:1"
                d="m 1528.5756,1469.6844 c -18.6441,-8.127 -44.391,-19.3992 -57.2154,-25.0495 -12.8244,-5.6502 -23.7677,-10.2731 -24.3184,-10.2731 -0.5507,0 -12.042,-5.0596 -25.5363,-11.2435 -13.4943,-6.1838 -35.7514,-15.9535 -49.4603,-21.7102 -38.5308,-16.1803 -102.3403,-43.8601 -106.5837,-46.2348 -4.4908,-2.5132 1.4607,-3.9273 69.6944,-16.5596 72.7611,-13.4705 125.5555,-23.6182 165.7642,-31.8621 l 38.1471,-7.8211 107.4162,35.559 c 131.9069,43.6663 146.2474,49.3439 178.2039,70.5535 31.2418,20.7352 37.9906,41.0669 17.0038,51.2265 -28.0141,13.5614 -119.1089,24.2315 -230.3638,26.983 l -48.8534,1.2083 z"
                id="path5156"
                inkscape:connector-curvature="0"/>
        <path
                style="opacity:0.32400004;fill:#008000;fill-opacity:1;stroke:none;stroke-width:1.99401796;stroke-opacity:1"
                d="m 1351.108,1830.4287 c -3.2901,-2.5775 -72.3828,-51.1275 -153.5394,-107.8888 -161.4467,-112.9167 -166.512,-116.5556 -166.4753,-119.5948 0.034,-2.7907 13.4387,-14.3135 59.7954,-51.3997 21.3858,-17.109 59.5214,-47.7447 84.7457,-68.0793 25.2244,-20.3347 46.8907,-37.0099 48.1475,-37.0562 2.0213,-0.074 13.8856,30.3621 20.6565,52.9916 l 2.4565,8.2102 13.2232,1.1953 c 31.8548,2.8796 172.2384,3.6363 281.4186,1.5169 172.5888,-3.3503 244.6994,-6.7222 283.9326,-13.2768 9.7522,-1.6293 18.1962,-2.4973 18.7646,-1.929 2.681,2.681 -33.7487,86.2065 -57.8611,132.6634 -26.2182,50.5141 -42.9023,74.1474 -60.3783,85.527 l -7.9872,5.2008 -195.7472,0.997 c -107.661,0.5484 -196.2688,1.5191 -196.9062,2.1572 -0.6375,0.638 1.4848,9.1625 4.716,18.9431 5.0499,15.2855 18.4581,57.9775 27.0344,86.0782 2.9731,9.7414 2.242,10.1979 -5.9963,3.7439 z"
                id="path5158"
                inkscape:connector-curvature="0"/>
        <path
                style="opacity:0.32400004;fill:#008000;fill-opacity:1;stroke:none;stroke-width:1.99401796;stroke-opacity:1"
                d="m 137.08183,1598.3698 c -30.43813,-48.3142 -76.854246,-127.1975 -84.401386,-143.4386 -7.996521,-17.2082 -8.498269,-25.9766 -1.894216,-33.1024 10.498371,-11.328 47.908617,-26.4299 144.392132,-58.2887 36.55188,-12.0695 58.14646,-20.1541 57.67729,-21.5934 -0.41249,-1.2654 -13.24514,-5.1047 -28.517,-8.5317 l -27.76701,-6.2309 10.9671,-1.1652 c 6.0319,-0.6408 81.10155,-1.6062 166.82145,-2.1452 l 155.85437,-0.98 38.56238,28.0986 c 55.14468,40.1815 95.1723,70.2956 94.42711,71.0408 -0.35318,0.3532 -20.46993,-3.9491 -44.7039,-9.5607 -56.09332,-12.9887 -60.3001,-13.472 -73.09011,-8.396 -15.85639,6.293 -140.90602,61.7324 -212.38241,94.1575 -117.4908,53.2994 -154.84882,73.636 -177.26524,96.4979 -5.99444,6.1135 -11.58989,11.1155 -12.43432,11.1155 -0.84444,0 -3.65525,-3.3649 -6.24624,-7.4775 z"
                id="path5160"
                inkscape:connector-curvature="0"/>
        <path
                style="opacity:0.32400004;fill:#008000;fill-opacity:1;stroke:none;stroke-width:1.99401796;stroke-opacity:1"
                d="m 376.03325,1722.2442 c -5.48355,-0.4309 -26.33025,-2.5863 -46.32601,-4.7897 -69.22554,-7.6282 -100.49652,-16.9899 -121.53779,-36.385 -12.35306,-11.3867 -17.01677,-21.3648 -18.15857,-38.8508 -2.69565,-41.2823 22.51558,-60.7871 148.14828,-114.6157 l 43.88064,-18.8011 253.18707,-2.1995 c 139.25287,-1.2098 253.56603,-1.8206 254.02922,-1.3574 1.7348,1.7348 -6.34379,187.5157 -8.94048,205.6018 -1.16953,8.1457 -1.35108,8.3097 -10.46309,9.4506 -10.48813,1.3131 -478.40884,3.1579 -493.81927,1.9468 z"
                id="path5162"
                inkscape:connector-curvature="0"/>
        <path
                style="opacity:0.32400004;fill:#008000;fill-opacity:1;stroke:none;stroke-width:1.99401796;stroke-opacity:1"
                d="m 335.15588,1717.5898 c -76.56117,-9.0437 -106.89277,-18.0826 -127.37244,-37.9575 -12.09436,-11.7371 -16.70558,-23.2016 -16.82555,-41.8319 -0.0841,-13.0567 0.70186,-16.5955 5.74921,-25.8871 12.42907,-22.8804 39.62684,-39.0142 141.43981,-83.9024 l 41.87438,-18.4619 148.55433,-1.5358 c 81.70488,-0.8447 196.4111,-1.6103 254.90271,-1.7013 l 106.34837,-0.1655 -1.22562,28.4148 c -7.35252,170.4582 -8.1603,182.0555 -12.83173,184.2252 -1.77409,0.824 -117.18376,1.7133 -256.46591,1.9762 -234.68079,0.443 -255.50541,0.2105 -284.14756,-3.1728 z"
                id="path5164"
                inkscape:connector-curvature="0"/>
        <path
                style="opacity:0.32400004;fill:#008000;fill-opacity:1;stroke:none;stroke-width:1.99401796;stroke-opacity:1"
                d="m 388.99437,1719.502 c -93.80447,-2.4557 -151.85674,-14.8774 -178.2967,-38.1508 -13.23833,-11.6528 -17.6186,-21.2495 -18.70135,-40.9726 -0.75834,-13.8137 -0.23609,-17.6787 3.40514,-25.2005 11.62399,-24.0119 45.92331,-44.6 147.7305,-88.6748 l 36.88933,-15.9702 59.82053,-1.1779 c 32.9013,-0.6478 147.57691,-1.7674 254.83472,-2.4879 l 195.01417,-1.31 -1.17009,22.7273 c -0.64355,12.5 -2.49322,52.7871 -4.11037,89.5268 -3.48433,79.16 -4.69856,94.7804 -7.65452,98.4701 -1.85956,2.3211 -37.18229,2.9168 -218.56894,3.6862 -118.99302,0.5048 -240.12961,0.2952 -269.19242,-0.4657 z"
                id="path5166"
                inkscape:connector-curvature="0"/>
        <path
                style="opacity:0.32400004;fill:#008000;fill-opacity:1;stroke:none;stroke-width:1.99401796;stroke-opacity:1"
                d="m 139.32508,1600.3638 c -3.97524,-4.5794 -59.361216,-96.9327 -75.215215,-125.4176 -13.305903,-23.9067 -18.863472,-38.8769 -16.870161,-45.4425 4.263006,-14.0416 25.263911,-23.5652 132.382786,-60.034 73.50121,-25.0237 73.98737,-25.2083 73.13383,-27.7753 -0.37463,-1.1266 -12.27213,-4.8177 -26.4389,-8.2024 l -25.75775,-6.1539 38.88335,-1.2957 c 21.38585,-0.7126 95.6212,-1.5016 164.96744,-1.7534 l 126.0841,-0.4576 20.47621,14.7951 c 52.89159,38.2168 109.21923,80.7771 107.61476,81.3119 -0.97813,0.3261 -21.941,-3.9224 -46.58415,-9.4411 -24.64315,-5.5186 -48.07126,-10.0338 -52.06249,-10.0338 -8.14961,0 -18.05663,4.0782 -120.42658,49.5736 -153.15796,68.0667 -225.82118,102.6089 -253.4609,120.489 -7.94824,5.1417 -20.25079,14.7437 -27.33899,21.3379 -7.0882,6.5941 -13.66851,11.9893 -14.62291,11.9893 -0.9544,0 -3.09839,-1.5703 -4.76443,-3.4895 z"
                id="path5168"
                inkscape:connector-curvature="0"/>
        <path
                style="fill:#008000;fill-opacity:1;stroke:none;stroke-opacity:1;opacity:0.324"
                d="m 137.08178,1596.3757 c -30.85661,-49.046 -71.21971,-117.9232 -81.204374,-138.5702 -8.870872,-18.3438 -10.122582,-29.1573 -4.075118,-35.2048 10.977181,-10.9772 28.636958,-18.2665 126.534542,-52.2294 40.41951,-14.0225 73.93409,-25.9394 74.47684,-26.4822 2.653,-2.653 -3.2182,-5.1244 -24.7704,-10.4268 l -23.49556,-5.7805 40.87737,-1.2207 c 22.48255,-0.6713 96.06181,-1.3272 163.50947,-1.4574 l 122.6321,-0.2367 21.93419,16.0362 c 64.94682,47.483 102.91091,76.6725 100.37536,77.176 -1.56941,0.3115 -21.82194,-3.502 -45.00561,-8.4746 -23.18366,-4.9726 -45.40895,-9.0411 -49.38951,-9.0411 -8.51421,0 -36.81007,11.8858 -160.91429,67.5931 -180.13746,80.8592 -208.62226,95.5348 -241.05035,124.1912 -7.22313,6.383 -13.71736,11.6055 -14.43161,11.6055 -0.71426,0 -3.41563,-3.3649 -6.00305,-7.4776 z"
                id="path5170"
                inkscape:connector-curvature="0"/>
        <path
                style="opacity:0.32400004;fill:#008000;fill-opacity:1;stroke:none;stroke-width:2.21975589;stroke-opacity:1"
                d="M 124.82228,1575.8038 C 81.12597,1505.39 52.084476,1453.0312 49.712815,1440.3891 c -4.096566,-21.8365 4.867798,-26.6995 127.867645,-69.3647 39.67814,-13.7633 73.13261,-25.9513 74.34327,-27.0845 3.24354,-3.0361 -2.07511,-5.6242 -20.51419,-9.9823 -8.85128,-2.0921 -16.09323,-4.4569 -16.09323,-5.2553 0,-1.495 174.55367,-4.396 264.5051,-4.396 h 50.67902 l 38.30138,28.0902 c 51.60857,37.8496 84.27523,63.1909 83.04428,64.4218 -0.55829,0.5583 -21.99571,-3.2867 -47.63871,-8.5444 l -46.62362,-9.5595 -24.07491,9.7492 c -25.27472,10.235 -165.223,72.5474 -237.17145,105.6013 -78.00369,35.8358 -115.06523,56.4054 -137.07327,76.0774 -17.92879,16.0258 -14.78727,17.3337 -34.44185,-14.3385 z"
                id="path4521"
                inkscape:connector-curvature="0"/>
        <path
                style="opacity:0.32400004;fill:#008000;fill-opacity:1;stroke:none;stroke-width:2.21975589;stroke-opacity:1"
                d=""
                id="path4523"
                inkscape:connector-curvature="0"/>
        <path
                style="opacity:0.32400004;fill:#008000;fill-opacity:1;stroke:none;stroke-width:2.21975589;stroke-opacity:1"
                d="m 349.61154,1717.9267 c -108.02526,-9.1234 -151.75301,-29.4938 -157.3585,-73.3049 -5.14742,-40.231 18.11181,-59.0331 139.57269,-112.8264 l 48.80687,-21.6159 252.50461,-2.3169 c 138.87754,-1.2744 253.20763,-1.6139 254.0669,-0.7547 2.56045,2.5605 -6.25174,195.735 -9.39203,205.8852 -0.84284,2.7242 -5.38604,3.8927 -19.36783,4.9811 -18.2268,1.4189 -491.99329,1.3746 -508.83271,-0.048 z"
                id="path4525"
                inkscape:connector-curvature="0"/>
        <path
                style="opacity:0.32400004;fill:#008000;fill-opacity:1;stroke:none;stroke-width:2.21975589;stroke-opacity:1"
                d="m 1209.7669,1730.4094 c -165.2693,-116.0096 -177.4325,-124.7031 -177.5183,-126.879 -0.1114,-2.8242 11.1325,-12.3568 84.2886,-71.4601 80.8525,-65.3213 103.9972,-83.4577 106.5043,-83.4577 2.3067,0 10.3126,18.9301 17.4707,41.3095 l 5.8474,18.2815 14.4451,1.2217 c 55.3891,4.6847 316.3015,2.8738 455.0665,-3.1583 50.1982,-2.1821 110.7475,-7.2987 121.8791,-10.2991 4.9433,-1.3325 5.2437,-0.9491 4.0262,5.1381 -0.7235,3.618 -5.7998,17.0768 -11.2806,29.9085 -42.2472,98.9104 -78.8136,163.0599 -102.5988,179.9919 l -9.0618,6.4509 -187.3866,1.0817 c -103.0626,0.5949 -191.6319,1.5978 -196.8205,2.2286 -5.6339,0.685 -9.434,2.3011 -9.434,4.0122 0,1.5759 4.8895,18.2461 10.8657,37.0449 18.1021,56.9432 22.1382,70.8094 20.586,70.7244 -0.8167,-0.045 -66.9123,-46.0076 -146.879,-102.1397 z"
                id="path4527"
                inkscape:connector-curvature="0"/>
        <path
                style="opacity:0.32400004;fill:#008000;fill-opacity:1;stroke:none;stroke-width:2.21975589;stroke-opacity:1"
                d="m 1227.4077,1742.0637 c -155.2529,-108.9865 -192.5107,-135.4782 -194.0588,-137.9831 -0.6667,-1.0787 7.5393,-9.369 18.2356,-18.4229 20.7806,-17.5899 164.0366,-132.7083 168.7886,-135.6362 3.2832,-2.0229 12.4153,16.7182 20.5629,42.1997 4.8659,15.2182 5.3946,15.9151 13.0334,17.1819 30.6629,5.0851 342.4647,2.991 470.7558,-3.1616 46.8662,-2.2477 107.8761,-7.7299 114.558,-10.294 5.3568,-2.0556 3.4692,4.2485 -12.6287,42.1762 -33.9133,79.9023 -72.3452,148.1683 -94.6933,168.2027 l -11.3903,10.211 -192.6939,1.5873 c -105.9816,0.873 -194.9414,2.1299 -197.6883,2.7932 -2.747,0.6633 -4.9945,2.5493 -4.9945,4.1912 0,1.6418 6.9922,25.6242 15.5383,53.294 17.0627,55.2444 16.2094,52.0525 13.8735,51.8959 -0.9157,-0.062 -58.1549,-39.7673 -127.1983,-88.2353 z"
                id="path4529"
                inkscape:connector-curvature="0"/>
        <path
                style="opacity:0.32400004;fill:#008000;fill-opacity:1;stroke:none;stroke-width:2.21975589;stroke-opacity:1"
                d="m 1299.667,1792.2308 c -205.9276,-144.273 -263.7612,-185.3636 -264.7907,-188.1332 -1.0656,-2.8665 20.5579,-21.4433 91.0057,-78.1831 78.3043,-63.0676 93.6084,-75.0821 95.6394,-75.0821 2.4873,0 11.6923,20.0206 18.0056,39.1615 5.1749,15.6896 6.753,18.2605 11.963,19.4886 12.7775,3.012 209.1339,3.9428 320.0971,1.5174 127.2853,-2.7823 183.65,-5.2662 233.2742,-10.2803 17.8124,-1.7998 33.5363,-3.2723 34.942,-3.2723 8.0571,0 -52.8297,130.3049 -81.8231,175.1112 -7.4163,11.4611 -18.8013,26.0295 -25.3001,32.3744 l -11.8161,11.5362 -194.3996,1.506 c -106.9198,0.8283 -195.9455,2.0992 -197.8349,2.8242 -1.8894,0.7251 -3.4353,2.8319 -3.4353,4.6818 0,1.85 6.4928,24.6329 14.4284,50.6288 14.7102,48.1883 15.6837,52.1531 12.7636,51.9853 -0.9156,-0.053 -24.6393,-16.1916 -52.7192,-35.8644 z"
                id="path4531"
                inkscape:connector-curvature="0"/>
        <path
                style="opacity:0.32400004;fill:#008000;fill-opacity:1;stroke:none;stroke-width:2.21975589;stroke-opacity:1"
                d="m 1300.5363,1792.3203 c -72.2084,-50.0386 -237.9191,-166.9952 -253.4667,-178.8938 -10.6841,-8.1766 -12.406,-10.3961 -10.1622,-13.0997 7.0013,-8.4361 181.1753,-149.4771 184.6061,-149.4885 2.2392,-0.01 12.7165,23.3268 19.0796,42.4926 3.6116,10.8783 6.1818,15.1502 9.7882,16.2696 9.6892,3.0073 220.3866,3.8743 331.1947,1.3629 120.6036,-2.7335 170.8859,-5.0269 224.0405,-10.2188 18.2278,-1.7804 33.6311,-2.7474 34.2296,-2.149 3.2583,3.2583 -36.0586,91.6598 -61.192,137.5864 -18.8262,34.4014 -33.6227,55.7932 -47.9902,69.3815 l -11.5288,10.9034 -193.3096,1.4205 c -106.3202,0.7813 -194.957,2.0527 -196.9704,2.8254 -2.0135,0.7726 -3.6609,2.9443 -3.6609,4.8259 0,1.8816 6.5827,25.3252 14.6282,52.0969 8.0455,26.7717 14.1803,49.1237 13.6329,49.6712 -0.5474,0.5473 -24.3609,-15.1966 -52.919,-34.9865 z"
                id="path4533"
                inkscape:connector-curvature="0"/>
        <path
                style="opacity:0.32400004;fill:#008000;fill-opacity:1;stroke:none;stroke-width:2.21975589;stroke-opacity:1"
                d="m 668.14649,1306.4151 c -126.48021,-22.2375 -189.85228,-33.7646 -191.77084,-34.8822 -2.80634,-1.6348 4.19417,-4.9659 42.98564,-20.454 65.47968,-26.1437 126.55348,-44.6366 168.07833,-50.8934 32.44758,-4.889 38.3401,-2.7135 69.4971,25.6591 11.59823,10.5617 31.27612,27.422 43.72868,37.4675 l 22.64098,18.2644 -15.23869,7.024 c -28.00056,12.9063 -69.6454,29.0494 -74.2879,28.7968 -2.52451,-0.1374 -32.05949,-5.0794 -65.6333,-10.9822 z"
                id="path4535"
                inkscape:connector-curvature="0"/>
        <path
                style="opacity:0.32400004;fill:#008000;fill-opacity:1;stroke:none;stroke-width:2.21975589;stroke-opacity:1"
                d="m 690.34405,1309.5119 c -73.17918,-12.5536 -205.08608,-36.2726 -209.62005,-37.6931 -3.97616,-1.2457 -3.88668,-1.5575 1.21367,-4.2299 3.02847,-1.5868 18.44518,-8.0548 34.25935,-14.3733 83.73863,-33.4579 154.7907,-53.4233 190.86059,-53.6314 17.09882,-0.099 22.78817,2.991 49.87911,27.0876 10.37736,9.2304 27.85794,24.1425 38.84573,33.138 10.98779,8.9956 21.38355,17.6409 23.10171,19.2119 3.45509,3.1592 -2.22049,6.1117 -45.29927,23.5655 -38.66375,15.6651 -34.37141,15.308 -83.24084,6.9247 z"
                id="path4537"
                inkscape:connector-curvature="0"/>
        <path
                style="opacity:0.32400004;fill:#008000;fill-opacity:1;stroke:none;stroke-width:2.21975589;stroke-opacity:1"
                d="m 654.82796,1303.0113 c -184.5303,-32.8322 -176.9706,-31.3473 -173.91934,-34.1621 3.58007,-3.3026 68.57061,-28.5115 105.45004,-40.9026 45.28708,-15.216 87.84489,-25.5872 111.98725,-27.2909 24.36973,-1.7198 28.56662,0.5488 75.23898,40.6711 20.75472,17.842 39.59219,33.7426 41.86107,35.3348 2.26885,1.5921 3.51602,3.8805 2.77145,5.0852 -1.49177,2.4137 -43.00191,20.3903 -65.7202,28.4611 -7.93563,2.8191 -17.92453,5.0635 -22.19756,4.9875 -4.27303,-0.076 -38.23529,-5.5589 -75.47169,-12.1841 z"
                id="path4539"
                inkscape:connector-curvature="0"/>
        <path
                style="opacity:0.32400004;fill:#008000;fill-opacity:1;stroke:none;stroke-width:2.21975589;stroke-opacity:1"
                d="m 1087.6803,1294.5287 c 0,-0.5065 5.2442,-4.7518 11.6538,-9.434 19.2423,-14.0567 54.6504,-45.4102 78.2463,-69.2864 25.2561,-25.5561 22.7681,-24.7545 55.8045,-17.9783 28.4754,5.8406 51.5949,12.9564 95.1389,29.2819 l 35.5161,13.3156 31.6908,-4.9862 c 17.4299,-2.7424 32.1725,-4.5044 32.7614,-3.9156 0.5888,0.5888 -18.9471,15.2126 -43.413,32.4972 l -44.4836,31.4266 h -126.4576 c -69.5516,0 -126.4576,-0.4144 -126.4576,-0.9208 z"
                id="path4541"
                inkscape:connector-curvature="0"/>
        <path
                style="opacity:0.32400004;fill:#008000;fill-opacity:1;stroke:none;stroke-width:2.21975589;stroke-opacity:1"
                d="m 1097.8597,1293.522 c -6.3663,-1.3799 -6.1459,-1.66 13.892,-17.657 11.1985,-8.9401 35.9237,-30.7945 54.9449,-48.5652 l 34.584,-32.3105 10.6268,0.2394 c 16.4536,0.3707 66.0089,13.9729 111.1296,30.5034 l 40.9342,14.9967 25.5615,-3.7252 c 14.0589,-2.0489 27.9438,-3.7212 30.8554,-3.7163 5.2794,0.01 5.2766,0.023 -1.0136,5.0035 -3.4691,2.7469 -22.748,16.7314 -42.842,31.0765 l -36.5346,26.0822 -117.8347,-0.2627 c -64.8091,-0.1444 -120.7457,-0.8936 -124.3035,-1.6648 z"
                id="path4543"
                inkscape:connector-curvature="0"/>
        <path
                style="opacity:0.32400004;fill:#008000;fill-opacity:1;stroke:none;stroke-width:2.21975589;stroke-opacity:1"
                d="m 1120.0035,1293.2987 -26.5004,-1.1789 28.7201,-24.6077 c 15.7961,-13.5343 40.0707,-35.3931 53.9435,-48.5751 l 25.2233,-23.9674 14.8003,1.3756 c 20.2917,1.8859 63.264,13.9782 109.3179,30.7618 l 38.5317,14.0423 25.5272,-3.761 c 14.04,-2.0686 27.525,-3.8023 29.9667,-3.8527 4.0695,-0.084 3.977,0.2955 -1.1099,4.5527 -3.0521,2.5544 -22.1621,16.5202 -42.4666,31.0352 l -36.9173,26.3909 -96.2681,-0.5184 c -52.9474,-0.2851 -108.1932,-1.0489 -122.7684,-1.6973 z"
                id="path4545"
                inkscape:connector-curvature="0"/>
        <path
                style="opacity:0.32400004;fill:#008000;fill-opacity:1;stroke:none;stroke-width:2.21975589;stroke-opacity:1"
                d="m 1536.071,1472.2187 c -15.2608,-6.6026 -48.7236,-21.1727 -74.3618,-32.3778 -25.6382,-11.2052 -80.3575,-34.9285 -121.5986,-52.7186 -41.241,-17.79 -74.5319,-32.7973 -73.9797,-33.3495 1.5984,-1.5984 14.8716,-4.2963 96.5101,-19.6167 42.2788,-7.9341 99.3457,-18.9161 126.8151,-24.4044 l 49.9445,-9.9788 106.5483,35.3193 c 58.6016,19.4256 116.1964,39.3074 127.9884,44.1817 41.3125,17.0768 74.6777,41.3141 78.6476,57.1315 2.1145,8.4248 -4.899,16.8467 -18.188,21.8404 -32.5437,12.2294 -113.2625,20.8359 -231.7332,24.7081 l -38.8457,1.2697 z"
                id="path4547"
                inkscape:connector-curvature="0"/>
        <path
                style="opacity:0.32400004;fill:#008000;fill-opacity:1;stroke:none;stroke-width:2.21975589;stroke-opacity:1"
                d="m 1475.0277,1445.1849 c -212.0276,-92.3327 -208.3383,-90.6503 -202.7758,-92.4704 2.8697,-0.939 54.6626,-11.1763 115.0955,-22.7495 60.4328,-11.5733 119.3673,-23.0029 130.9656,-25.3991 l 21.0876,-4.3567 105.6606,35.3073 c 58.1134,19.4191 115.2932,39.1838 127.0664,43.9215 42.8659,17.2502 79.1487,44.2953 79.1487,58.9973 0,9.5869 -7.2766,16.1152 -23.6169,21.188 -35.9979,11.1756 -105.1456,17.93 -237.2044,23.1705 l -26.637,1.057 z"
                id="path4549"
                inkscape:connector-curvature="0"/>
        <path
                style="opacity:0.32400004;fill:#008000;fill-opacity:1;stroke:none;stroke-width:2.21975589;stroke-opacity:1"
                d="m 1508.3241,1459.3322 c -30.5217,-13.3587 -89.4562,-39.1292 -130.9656,-57.2678 -101.55,-44.3748 -106.2971,-46.5628 -104.6333,-48.2266 0.7943,-0.7943 61.258,-13.0475 134.3639,-27.2294 l 132.9197,-25.7853 71.838,23.9328 c 162.9939,54.3014 190.4242,65.3296 218.3744,87.7964 7.3073,5.8737 15.2838,14.39 17.7255,18.9251 4.0883,7.5934 4.17,8.7291 1.033,14.3553 -9.3319,16.7367 -75.2593,27.8221 -200.811,33.7654 -26.8591,1.2714 -56.8258,2.6967 -66.5927,3.1672 l -17.758,0.8554 z"
                id="path4551"
                inkscape:connector-curvature="0"/>
        <path
                style="opacity:0.32400004;fill:#008000;fill-opacity:1;stroke:none;stroke-width:2.21975589;stroke-opacity:1"
                d="m 1441.1628,1429.7283 c -67.4604,-29.5099 -133.347,-58.5456 -146.4147,-64.5236 l -23.7594,-10.8692 13.2293,-2.9741 c 28.0696,-6.3103 250.8007,-49.2527 255.461,-49.2527 4.559,0 175.7636,57.3219 218.3676,73.1128 48.8895,18.1205 86.0981,42.9881 91.8542,61.3886 2.2244,7.1108 -5.8861,15.5179 -20.1016,20.8366 -26.1912,9.7994 -92.267,17.4605 -191.6194,22.2172 -26.2486,1.2567 -53.7181,2.6076 -61.0433,3.0019 -13.1187,0.7063 -15.1591,-0.088 -135.9737,-52.9375 z"
                id="path4553"
                inkscape:connector-curvature="0"/>
        <path
                style="opacity:0.32400004;fill:#008000;fill-opacity:1;stroke:none;stroke-width:2.21975589;stroke-opacity:1"
                d="m 720.31075,1313.8457 c -15.52251,-2.348 -218.58953,-38.4054 -229.60821,-40.7701 l -12.07214,-2.5908 6.01507,-3.1516 c 3.30829,-1.7334 22.22577,-9.4817 42.03885,-17.2185 70.45099,-27.5105 136.29321,-46.2673 172.8346,-49.2365 15.09823,-1.2268 17.24138,-0.8432 27.94495,5.0009 6.37594,3.4812 29.72462,21.7347 51.88593,40.5633 34.97094,29.7117 39.80843,34.5882 36.62244,36.9179 -6.80782,4.978 -71.16575,29.4623 -80.1232,30.482 -4.88346,0.5559 -11.87569,0.5575 -15.53829,0 z"
                id="path4555"
                inkscape:connector-curvature="0"/>
        <path
                style="opacity:0.32400004;fill:#008000;fill-opacity:1;stroke:none;stroke-width:2.21975589;stroke-opacity:1"
                d="m 1151.4983,1293.7865 c -30.2164,-0.3489 -54.9389,-1.416 -54.9389,-2.3715 0,-0.9554 11.2375,-11.3448 24.9722,-23.0875 13.7347,-11.7427 37.33,-32.9191 52.4339,-47.0587 22.0707,-20.6616 28.7343,-25.7083 33.9448,-25.7083 17.407,0 67.2425,13.7449 123.8685,34.1635 l 32.726,11.8006 27.5145,-4.0566 c 15.133,-2.2312 28.5134,-4.0603 29.7343,-4.0648 2.896,-0.011 -1.74,3.5655 -45.8644,35.3796 l -36.9853,26.6667 -66.2333,-0.5144 c -36.4283,-0.2829 -90.9559,-0.7998 -121.1723,-1.1486 z"
                id="path4557"
                inkscape:connector-curvature="0"/>
        <path
                style="opacity:0.32400004;fill:#008000;fill-opacity:1;stroke:none;stroke-width:2.21975589;stroke-opacity:1"
                d="m 139.3144,1597.8912 c -6.00747,-6.7877 -64.203429,-104.9887 -77.600871,-130.9452 -14.884384,-28.8374 -16.059986,-36.7193 -6.774573,-45.4208 10.995399,-10.304 33.224649,-19.2689 139.289674,-56.1748 30.52164,-10.6202 56.48444,-20.2457 57.6951,-21.3902 3.16746,-2.9941 -1.74547,-5.4616 -19.89986,-9.9947 l -15.59768,-3.8946 8.7607,-1.494 c 4.81838,-0.8216 74.98831,-2.2349 155.93317,-3.1406 138.68581,-1.5518 147.52475,-1.42 153.28148,2.2856 15.41323,9.9213 115.9869,86.1547 115.9869,87.9164 0,1.0903 -2.2475,1.4541 -4.99445,0.8085 -31.94483,-7.508 -84.211,-16.7509 -89.78432,-15.8778 -15.45834,2.4218 -267.20097,114.9748 -330.64792,147.8313 -33.26535,17.2267 -47.34659,26.2001 -66.15314,42.1567 -7.27235,6.1703 -13.86004,11.2188 -14.63932,11.2188 -0.77927,0 -2.96397,-1.7481 -4.85489,-3.8846 z"
                id="path4559"
                inkscape:connector-curvature="0"/>
        <path
                style="opacity:0.32400004;fill:#008000;fill-opacity:1;stroke:none;stroke-width:2.21975589;stroke-opacity:1"
                d="m 347.08941,1717.0524 c -51.80023,-3.3065 -101.27952,-14.3962 -124.22286,-27.8419 -11.27206,-6.6059 -22.41109,-18.6785 -26.69585,-28.9334 -4.63604,-11.0956 -3.94694,-36.946 1.25679,-47.1462 10.99198,-21.5461 45.36199,-41.989 142.14687,-84.5476 l 41.01721,-18.0363 205.37568,-2.0429 c 112.95662,-1.1236 227.23948,-2.0733 253.96188,-2.1104 l 48.58621,-0.067 -1.52541,40.5105 c -2.91086,77.304 -8.08482,161.9999 -10.12975,165.8209 -1.76126,3.291 -7.07991,4.0496 -37.12723,5.2958 -47.91885,1.9874 -459.17615,1.2351 -492.64354,-0.9011 z"
                id="path4561"
                inkscape:connector-curvature="0"/>
        <path
                style="opacity:0.32400004;fill:#008000;fill-opacity:1;stroke:none;stroke-width:2.21975589;stroke-opacity:1"
                d="m 695.89344,1309.5732 c -213.84398,-37.9391 -215.40333,-38.2386 -212.75572,-40.8637 2.88174,-2.8571 72.31592,-29.6807 105.50354,-40.7577 38.05957,-12.7032 77.5088,-22.6006 103.14974,-25.8792 19.68825,-2.5174 20.68106,-2.4279 32.18646,2.9033 13.06202,6.0525 92.88883,71.0495 92.89158,75.6347 10e-4,2.3406 -26.33043,14.3871 -53.73105,24.5811 -24.3014,9.041 -36.50069,9.8359 -67.24455,4.3815 z"
                id="path4563"
                inkscape:connector-curvature="0"/>
        <path
                style="opacity:0.32400004;fill:#008000;fill-opacity:1;stroke:none;stroke-width:2.21975589;stroke-opacity:1"
                d="m 1168.3279,1293.3061 c -38.0523,-0.6525 -69.687,-1.6888 -70.2993,-2.3031 -0.6123,-0.6143 9.5447,-10.3114 22.5711,-21.5491 13.0264,-11.2378 36.1705,-31.9898 51.4314,-46.1157 15.2608,-14.1259 29.8456,-26.2256 32.4107,-26.8882 11.1493,-2.8802 70.4055,12.6939 127.1241,33.4116 l 33.0106,12.0579 20.8194,-3.1763 c 33.8845,-5.1697 35.4245,-5.3089 34.0458,-3.0781 -1.3781,2.2298 -18.0171,14.6906 -57.0057,42.6909 l -23.8016,17.0935 -50.5603,-0.4786 c -27.8081,-0.2632 -81.6939,-1.0124 -119.7462,-1.6648 z"
                id="path4565"
                inkscape:connector-curvature="0"/>
        <path
                style="opacity:0.32400004;fill:#008000;fill-opacity:1;stroke:none;stroke-width:2.21975589;stroke-opacity:1"
                d="m 1548.2797,1476.0363 c -28.5921,-12.2161 -240.7159,-105.1361 -257.2777,-112.6996 -9.6492,-4.4066 -17.0062,-8.5497 -16.349,-9.2069 1.1726,-1.1726 102.5357,-21.3967 210.7514,-42.0492 l 54.7717,-10.453 81.7432,27.1612 c 150.2062,49.9096 184.7719,64.1786 210.053,86.7113 15.9175,14.187 20.0308,21.3845 16.379,28.6602 -8.9813,17.8937 -66.439,27.61 -210.1715,35.5408 -62.336,3.4395 -74.4256,2.9467 -89.9001,-3.6648 z"
                id="path4567"
                inkscape:connector-curvature="0"/>
        <path
                style="opacity:0.32400004;fill:#008000;fill-opacity:1;stroke:none;stroke-width:2.21975589;stroke-opacity:1"
                d="m 1335.1831,1816.2782 c -7.3252,-5.216 -26.8035,-18.8394 -43.2852,-30.2743 -150.8127,-104.6324 -255.2719,-179.5206 -255.2719,-183.0079 0,-3.9244 84.7059,-74.2716 163.0017,-135.3709 l 22.0473,-17.2049 4.9996,9.64 c 2.7497,5.3021 8.1589,18.3109 12.0205,28.9086 3.8627,10.6009 8.6709,19.9788 10.689,20.8476 2.0174,0.8685 54.6114,2.0558 116.8756,2.6384 182.7902,1.7104 410.9902,-5.1888 466.9827,-14.1184 7.2756,-1.1603 7.4491,-1.0133 5.9746,5.0623 -5.4335,22.3877 -60.8388,136.5874 -81.5853,168.1607 -6.3676,9.6906 -17.269,23.6751 -24.2254,31.0766 l -12.648,13.4572 -192.7876,1.575 c -106.0332,0.8663 -195.0351,2.1339 -197.782,2.817 -2.747,0.6831 -4.9945,2.9021 -4.9945,4.9312 0,2.8183 22.6398,82.4952 27.7837,97.78 1.6916,5.0263 -4.2815,2.7041 -17.7948,-6.9182 z"
                id="path4569"
                inkscape:connector-curvature="0"/>
        <path
                style="opacity:0.32400004;fill:#008000;fill-opacity:1;stroke:none;stroke-width:2.21975589;stroke-opacity:1"
                d="m 359.60044,1717.0663 c -55.13165,-2.4088 -102.46581,-11.1991 -127.63596,-23.703 -27.83433,-13.8275 -37.01142,-26.455 -38.33004,-52.7418 -0.77863,-15.5221 -0.21824,-19.0158 4.45061,-27.7469 11.03239,-20.6316 47.82827,-42.6008 139.17832,-83.0974 l 43.14572,-19.127 252.78755,-2.3811 c 139.03316,-1.3096 253.37941,-1.7892 254.10281,-1.0658 1.36815,1.3681 -5.16306,155.2522 -7.94242,187.1338 -0.87261,10.0097 -2.38262,18.9997 -3.35558,19.9778 -0.97294,0.9781 -15.92413,2.3358 -33.22486,3.0172 -47.78437,1.8821 -438.94091,1.6669 -483.17615,-0.2658 z"
                id="path4571"
                inkscape:connector-curvature="0"/>
        <path
                style="opacity:0.32400004;fill:#008000;fill-opacity:1;stroke:none;stroke-width:2.21975589;stroke-opacity:1"
                d="m 130.18529,1583.4628 c -28.89585,-44.9236 -72.562386,-121.5985 -77.954919,-136.8826 -4.903164,-13.897 -4.29197,-17.6858 4.135116,-25.6336 9.646246,-9.0975 34.15506,-19.1111 122.324853,-49.9783 39.0677,-13.6771 71.96448,-25.759 73.10396,-26.8487 3.16028,-3.0222 0.76715,-4.316 -18.02473,-9.7443 l -17.34338,-5.0099 21.08768,-1.3726 c 11.59822,-0.755 82.02819,-2.0199 156.51101,-2.811 l 135.42335,-1.4384 43.94714,32.4733 c 61.19332,45.2167 76.65354,57.7806 72.16464,58.645 -2.03101,0.3912 -21.50355,-2.9269 -43.27232,-7.3735 -21.76879,-4.4466 -42.68564,-7.5866 -46.48191,-6.9777 -10.81962,1.7351 -118.25263,48.522 -241.71034,105.2643 -95.88147,44.068 -122.59449,58.4523 -151.30301,81.4729 -9.96471,7.9904 -18.72745,14.5281 -19.47274,14.5281 -0.74529,0 -6.65577,-8.2409 -13.1344,-18.313 z"
                id="path4573"
                inkscape:connector-curvature="0"/>
        <path
                style="opacity:0.32400004;fill:#008000;fill-opacity:1;stroke:none;stroke-width:2.21975589;stroke-opacity:1"
                d="m 690.34405,1308.6566 c -12.81909,-2.4138 -62.7636,-11.4236 -110.98779,-20.0219 -99.5677,-17.7528 -98.63551,-17.56 -96.16696,-19.8907 1.00504,-0.9489 15.85386,-7.2562 32.99738,-14.0163 69.98591,-27.597 136.53067,-47.4029 176.75036,-52.6067 17.46665,-2.2599 20.13877,-2.0925 28.97393,1.8158 13.13858,5.8118 90.25012,67.9529 93.57889,75.4114 1.52371,3.4141 -7.06677,7.865 -41.90497,21.7118 -32.43434,12.8915 -47.71469,14.286 -83.24084,7.5966 z"
                id="path4575"
                inkscape:connector-curvature="0"/>
        <path
                style="opacity:0.32400004;fill:#008000;fill-opacity:1;stroke:none;stroke-width:2.21975589;stroke-opacity:1"
                d="m 1172.7676,1293.3295 c -39.273,-0.6653 -72.0255,-1.8312 -72.7833,-2.5908 -0.7578,-0.7596 15.7186,-16.7419 36.6141,-35.5161 54.9625,-49.3827 67.0254,-59.6621 70.0132,-59.6621 15.5354,0 73.9191,16.1653 126.7067,35.0827 l 31.4315,11.264 21.8426,-3.2854 c 37.924,-5.7043 37.8949,-5.5981 -7.5034,27.4159 l -40.4448,29.4118 -47.2355,-0.4552 c -25.9796,-0.2503 -79.3681,-0.9995 -118.6411,-1.6648 z"
                id="path4577"
                inkscape:connector-curvature="0"/>
        <path
                style="opacity:0.32400004;fill:#008000;fill-opacity:1;stroke:none;stroke-width:2.21975589;stroke-opacity:1"
                d="m 1540.5105,1472.4076 c -58.8148,-24.7162 -262.5311,-114.6262 -264.8635,-116.8974 -1.5383,-1.4977 156.0452,-33.641 240.4462,-49.0453 l 25.5272,-4.659 89.9001,30.2694 c 100.4212,33.8118 143.4455,49.4731 163.1521,59.389 19.0598,9.5904 36.6158,21.9556 46.1398,32.4976 12.9423,14.3256 10.7907,23.3185 -7.4575,31.1686 -27.9671,12.0311 -116.1707,21.879 -230.6912,25.7565 l -38.8457,1.3152 z"
                id="path4579"
                inkscape:connector-curvature="0"/>
    </g>
</svg>
